<?xml version="1.0" encoding="UTF-8" standalone="no"?>
<!-- Created with Inkscape (http://www.inkscape.org/) -->

<svg
   width="31.546894mm"
   height="8.439642mm"
   viewBox="0 0 31.546894 8.439642"
   version="1.1"
   id="svg1"
   sodipodi:docname="hfLogo.svg"
   xmlns:inkscape="http://www.inkscape.org/namespaces/inkscape"
   xmlns:sodipodi="http://sodipodi.sourceforge.net/DTD/sodipodi-0.dtd"
   xmlns="http://www.w3.org/2000/svg"
   xmlns:svg="http://www.w3.org/2000/svg">
  <sodipodi:namedview
     id="namedview1"
     pagecolor="#505050"
     bordercolor="#eeeeee"
     borderopacity="1"
     inkscape:showpageshadow="0"
     inkscape:pageopacity="0"
     inkscape:pagecheckerboard="0"
     inkscape:deskcolor="#505050"
     inkscape:document-units="mm"
     inkscape:zoom="2.955623"
     inkscape:cx="293.17"
     inkscape:cy="342.22903"
     inkscape:window-width="3440"
     inkscape:window-height="1369"
     inkscape:window-x="-8"
     inkscape:window-y="-8"
     inkscape:window-maximized="1"
     inkscape:current-layer="layer1" />
  <defs
     id="defs1" />
  <g
     inkscape:label="Layer 1"
     inkscape:groupmode="layer"
     id="layer1"
     transform="translate(-86.405291,-104.78482)">
    <g
       id="g1"
       inkscape:export-filename="hfLogo.svg"
       inkscape:export-xdpi="96"
       inkscape:export-ydpi="96">
      <path
         d="m 100.67293,104.78482 h 2.21218 l -0.70207,0.70209 h -2.212205 z"
         fill="#959595"
         id="path1"
         style="fill:#fafafa;fill-opacity:1;stroke-width:0.264583" />
      <path
         d="m 102.88511,104.78482 v 5.90269 l -0.70207,0.70207 v -5.90267 z"
         fill="#959595"
         id="path2"
         style="fill:#fafafa;fill-opacity:1;stroke-width:0.264583" />
      <path
         d="m 102.88511,110.68751 h -2.21218 l -0.702095,0.70207 h 2.212205 z"
         fill="#959595"
         id="path3"
         style="fill:#aeaeae;fill-opacity:1;stroke-width:0.264583" />
      <path
         d="m 100.67293,110.68751 v -5.90269 l -0.702095,0.70209 v 5.90267 z"
         fill="#959595"
         id="path4"
         style="fill:#aeaeae;fill-opacity:1;stroke-width:0.264583" />
      <path
         d="m 97.656287,110.68751 h -2.212288 l -0.702098,0.70207 h 2.212287 z"
         fill="#959595"
         id="path5"
         style="fill:#aeaeae;fill-opacity:1;stroke-width:0.264583" />
      <path
         d="m 95.443999,110.68751 v -5.90269 l -0.702098,0.70209 v 5.90267 z"
         fill="#959595"
         id="path6"
         style="fill:#aeaeae;fill-opacity:1;stroke-width:0.264583" />
      <path
         d="m 95.443999,104.78482 h 2.212288 l -0.702099,0.70209 h -2.212287 z"
         fill="#959595"
         id="path7"
         style="fill:#aeaeae;fill-opacity:1;stroke-width:0.264583" />
      <path
         d="m 97.656287,104.78482 v 5.90269 l -0.702072,0.70207 v -5.90267 z"
         fill="#959595"
         id="path8"
         style="fill:#aeaeae;fill-opacity:1;stroke-width:0.264583" />
      <path
         d="m 100.8293,109.17976 h -3.329488 l -0.702098,0.7021 h 3.329516 z"
         fill="#959595"
         id="path9"
         style="fill:#aeaeae;fill-opacity:1;stroke-width:0.264583" />
      <path
         d="m 97.499812,109.17978 v -1.78009 l -0.702098,0.70208 v 1.78009 z"
         fill="#959595"
         id="path10"
         style="fill:#fafafa;fill-opacity:1;stroke-width:0.264583" />
      <path
         d="m 97.499812,107.39969 h 3.329488 l -0.70207,0.70208 h -3.329516 z"
         fill="#959595"
         id="path11"
         style="fill:#fafafa;fill-opacity:1;stroke-width:0.264583" />
      <path
         d="m 100.8293,107.39969 v 1.78009 l -0.70207,0.70208 v -1.78009 z"
         fill="#959595"
         id="path12"
         style="fill:#aeaeae;fill-opacity:1;stroke-width:0.264583" />
      <path
         d="m 100.67293,104.78482 h 2.21224 v 5.90267 h -2.21224 z m -3.01667,5.90267 h -2.212234 v -5.90267 h 2.212234 z m 3.1731,-1.50771 h -3.329522 v -1.78009 h 3.329522 z"
         fill="white"
         id="path13"
         style="fill:#fafafa;fill-opacity:1;stroke-width:0.264583" />
      <path
         d="m 106.17492,107.37358 h 3.60881 l -0.70207,0.7021 h -3.60884 z"
         fill="#959595"
         id="path14"
         style="fill:#fafafa;fill-opacity:1;stroke-width:0.264583" />
      <path
         d="m 109.78373,107.37358 v 1.68735 l -0.7021,0.70208 v -1.68733 z"
         fill="#959595"
         id="path15"
         style="fill:#fafafa;fill-opacity:1;stroke-width:0.264583" />
      <path
         d="m 109.78373,109.06093 h -3.60881 l -0.7021,0.70208 h 3.60884 z"
         fill="#959595"
         id="path16"
         style="fill:#aeaeae;fill-opacity:1;stroke-width:0.264583" />
      <path
         d="m 106.17492,109.06093 v -1.68735 l -0.7021,0.7021 v 1.68733 z"
         fill="#959595"
         id="path17"
         style="fill:#fafafa;fill-opacity:1;stroke-width:0.264583" />
      <path
         d="m 106.33139,110.68751 h -2.21229 l -0.70207,0.70207 h 2.21229 z"
         fill="#959595"
         id="path18"
         style="fill:#aeaeae;fill-opacity:1;stroke-width:0.264583" />
      <path
         d="m 104.1191,110.68751 v -5.90269 l -0.70207,0.70209 v 5.90267 z"
         fill="#959595"
         id="path19"
         style="fill:#aeaeae;fill-opacity:1;stroke-width:0.264583" />
      <path
         d="m 104.1191,104.78482 h 6.13397 l -0.70218,0.70209 h -6.13386 z"
         fill="#959595"
         id="path20"
         style="fill:#aeaeae;fill-opacity:1;stroke-width:0.264583" />
      <path
         d="m 110.25307,104.78482 v 1.68732 l -0.70218,0.70207 v -1.6873 z"
         fill="#959595"
         id="path21"
         style="fill:#fafafa;fill-opacity:1;stroke-width:0.264583" />
      <path
         d="m 110.25307,106.47214 h -3.92168 l -0.70207,0.70207 h 3.92157 z"
         fill="#959595"
         id="path22"
         style="fill:#aeaeae;fill-opacity:1;stroke-width:0.264583" />
      <path
         d="m 106.33139,106.47214 v 4.21537 l -0.70207,0.70207 v -4.21537 z"
         fill="#959595"
         id="path23"
         style="fill:#aeaeae;fill-opacity:1;stroke-width:0.264583" />
      <path
         d="m 106.17494,107.37358 h 3.60881 v 1.6873 h -3.60881 z m 0.15643,3.31393 h -2.21224 v -5.90268 h 6.13389 v 1.68732 h -3.92165 z"
         fill="white"
         id="path24"
         style="fill:#fafafa;fill-opacity:1;stroke-width:0.264583" />
    </g>
    <path
       d="m 91.100391,104.79441 c -0.03291,-0.003 -0.09326,0.0509 -0.145221,0.0914 h -2.36e-4 c -0.05007,0.0538 -0.07304,0.0822 -0.162317,0.17266 -0.0893,0.0904 -0.175257,0.18956 -0.191171,0.22027 -0.05061,0.0974 -0.0088,0.50829 0.09829,0.96366 0.229655,0.97718 0.432113,1.56976 0.651194,1.90598 0.04133,0.0635 0.08312,0.14046 0.09288,0.17124 0.07007,0.22073 0.154681,0.52304 0.148261,0.52945 -0.0042,0.004 -0.05912,-0.0171 -0.121981,-0.0477 -0.103528,-0.0501 -0.291048,-0.1125 -0.424848,-0.14146 -0.02818,-0.006 -0.100386,-0.0586 -0.160459,-0.11685 -0.144611,-0.13998 -0.386261,-0.3263 -0.515128,-0.39738 -0.05711,-0.0315 -0.180293,-0.0851 -0.27375,-0.11915 -0.295103,-0.10765 -0.54443,-0.24531 -0.88016,-0.48536 l -0.144268,-0.10292 -0.0079,-0.16703 c -0.0067,-0.13841 -0.01761,-0.18603 -0.06405,-0.27681 -0.06383,-0.12476 -0.112123,-0.15676 -0.237867,-0.15715 -0.129864,-4.8e-4 -0.169525,-0.0216 -0.380725,-0.2041 -0.105418,-0.0911 -0.206387,-0.17685 -0.224497,-0.19071 -0.02998,-0.023 -0.0433,-0.004 -0.14896,0.21581 -0.156053,0.32429 -0.158844,0.35944 -0.0434,0.56511 0.07178,0.12787 0.117014,0.18311 0.214644,0.26157 0.411951,0.33102 0.602846,0.49567 0.812826,0.70069 0.487151,0.47567 0.960417,0.81355 1.382157,0.98712 0.223743,0.0921 0.430153,0.209 0.543545,0.30777 l 0.08491,0.074 -0.06007,0.0481 c -0.03308,0.0264 -0.102647,0.10638 -0.15458,0.17783 l -0.09431,0.12994 -0.251484,0.0574 c -0.658491,0.15097 -0.954746,0.18083 -1.657776,0.16681 -0.569299,-0.0115 -0.905372,-0.0469 -0.969762,-0.10255 -0.02112,-0.0182 -0.05565,-0.0501 -0.07694,-0.0713 -0.0847,-0.0838 -0.166121,-0.14122 -0.200564,-0.14122 -0.01995,0 -0.06991,0.0305 -0.11096,0.0676 l -0.07459,0.0673 -0.264141,-0.0863 c -0.14524,-0.0475 -0.286883,-0.0863 -0.314807,-0.0863 -0.07172,0 -0.366888,0.30196 -0.366888,0.37531 0,0.0297 0.03659,0.10216 0.08961,0.17688 0.04932,0.0695 0.112072,0.15951 0.139577,0.20009 0.04707,0.0694 0.05729,0.0746 0.170073,0.0863 0.324512,0.034 0.53625,0.0475 0.742218,0.048 0.209836,7.1e-4 0.242736,0.006 0.463535,0.0756 0.477203,0.15047 0.818606,0.20992 1.276829,0.22215 l 0.342507,0.009 0.0067,0.1349 c 0.0052,0.1028 0.02018,0.16122 0.06264,0.24514 0.07106,0.14049 0.11603,0.17478 0.250502,0.19094 0.497054,0.0596 0.930012,0.2551 1.233934,0.55688 0.0893,0.0887 0.213572,0.23804 0.27608,0.33174 0.06253,0.0936 0.125288,0.17938 0.139577,0.1907 0.03065,0.0242 0.420457,0.12041 0.48793,0.12028 0.02899,-1e-5 0.07633,-0.0293 0.125761,-0.0778 l 0.07903,-0.0777 0.01386,0.12971 c 0.0077,0.0714 0.03467,0.20167 0.06004,0.28993 0.0196,0.0681 0.03098,0.12183 0.03944,0.2062 h 1.841471 v -3.79973 c -0.03082,0.0102 -0.06551,0.0152 -0.108866,0.006 -0.01615,0 -0.02835,-0.0425 -0.03636,-0.12745 -0.01926,-0.20394 -0.0148,-0.2659 0.02534,-0.34461 0.03334,-0.0654 0.03773,-0.11084 0.03754,-0.39082 -2.37e-4,-0.3472 -0.0177,-0.44839 -0.105111,-0.60896 -0.06483,-0.11914 -0.152012,-0.19839 -0.29017,-0.2632 -0.08859,-0.0415 -0.130895,-0.049 -0.274697,-0.0488 -0.147213,1.2e-4 -0.184143,0.007 -0.276788,0.0526 -0.135287,0.0663 -0.246618,0.17706 -0.307774,0.30636 -0.0962,0.2033 -0.112109,0.76086 -0.02794,0.97447 0.0396,0.1005 0.0398,0.11378 0.0077,0.42224 -0.0044,0.0421 -0.0444,0.0413 -0.07744,-9.1e-4 -0.01188,-0.0155 -0.02741,-0.0765 -0.03447,-0.13582 -0.04295,-0.35998 -0.21141,-0.70746 -0.479954,-0.99017 -0.131909,-0.13882 -0.132652,-0.14034 -0.171238,-0.31762 -0.08133,-0.37342 -0.217998,-0.69718 -0.434207,-1.02841 -0.184111,-0.28202 -0.254321,-0.468 -0.342981,-0.90854 -0.02247,-0.1116 -0.02139,-0.12054 0.02957,-0.23411 0.03153,-0.0702 0.05687,-0.16538 0.06241,-0.23435 0.0087,-0.1079 0.006,-0.118 -0.03802,-0.14684 -0.0744,-0.0488 -0.119606,-0.14146 -0.163736,-0.33522 -0.02247,-0.0986 -0.04514,-0.19389 -0.05044,-0.21183 -0.0054,-0.0182 -0.0444,-0.0429 -0.08866,-0.0561 z m 0.418732,6.15777 c 0.03429,-9.1e-4 0.05558,0.0197 0.113999,0.0611 0.05797,0.0411 0.130928,0.0922 0.16208,0.11379 0.09051,0.0627 0.249287,0.25848 0.322337,0.39738 0.03703,0.0704 0.06457,0.13478 0.06122,0.14286 -0.0033,0.007 -0.09532,-0.0427 -0.204314,-0.11263 -0.109032,-0.0698 -0.295813,-0.18865 -0.415219,-0.26389 -0.119402,-0.0753 -0.241347,-0.1567 -0.270709,-0.18086 l -0.05325,-0.0439 0.09102,-0.0398 c 0.111024,-0.0485 0.158499,-0.0724 0.192827,-0.0739 z m 2.078865,0.29909 0.08092,0.0474 c 0.08328,0.0488 0.238136,0.0941 0.395756,0.11582 0.101842,0.014 0.110654,0.0367 0.06052,0.15671 -0.05602,0.13408 -0.181812,0.23128 -0.34484,0.26626 -0.123322,0.0264 -0.121598,0.0264 -0.159749,-0.003 -0.03592,-0.027 -0.04176,-0.0872 -0.03636,-0.37935 z m -0.188604,0.005 v 0.26179 c 0,0.14407 -0.0052,0.2754 -0.0115,0.29183 -0.01482,0.0386 -0.17492,0.0385 -0.280811,-2.4e-4 -0.134274,-0.0491 -0.272567,-0.22175 -0.27375,-0.3418 -4.72e-4,-0.0337 0.01304,-0.0436 0.07037,-0.0522 0.177555,-0.0272 0.270066,-0.0526 0.378592,-0.10395 z m -0.498506,0.66059 c 0.0044,-0.004 0.04795,0.0115 0.09714,0.0366 0.06534,0.0326 0.131435,0.0468 0.245368,0.0527 l 0.155999,0.007 v 0.14873 0.14875 h -0.07227 c -0.04145,0 -0.115188,-0.0222 -0.173568,-0.0521 -0.05586,-0.0286 -0.126131,-0.0826 -0.155998,-0.1203 -0.0522,-0.0657 -0.113016,-0.20604 -0.09667,-0.22262 z m 1.157436,9.2e-4 c 0.03305,-0.005 0.02714,0.042 -0.01922,0.13442 -0.07728,0.15396 -0.189279,0.23312 -0.357982,0.2531 l -0.09312,0.0115 v -0.15363 -0.15367 h 0.11589 c 0.121942,0 0.246111,-0.0278 0.308448,-0.0695 0.01966,-0.013 0.03496,-0.0203 0.04599,-0.0219 z m -0.98478,0.50877 0.09031,0.0272 c 0.04971,0.0149 0.119108,0.0272 0.15414,0.0272 0.035,0 0.06775,0.0115 0.07294,0.0246 0.0052,0.0135 0.0071,0.13049 0.0042,0.25971 l -0.0054,0.23481 -0.09663,-0.0899 c -0.106568,-0.0992 -0.188435,-0.25588 -0.207863,-0.39762 z m 0.812124,9.1e-4 c 0.02558,-0.006 0.02598,0.0142 0.01642,0.0841 -0.02334,0.17039 -0.160798,0.39596 -0.281488,0.46189 -0.03155,0.0172 -0.03334,0.003 -0.02839,-0.2327 l 0.0054,-0.25102 0.108393,-0.0137 c 0.05966,-0.007 0.12511,-0.0223 0.14522,-0.0331 0.01463,-0.007 0.02595,-0.0131 0.03447,-0.0154 z"
       fill="#FF7F2A"
       id="path25"
       style="fill:#fafafa;fill-opacity:1;stroke-width:0.337878" />
    <text
       xml:space="preserve"
       style="font-style:italic;font-weight:900;font-size:3.3587px;line-height:1;font-family:Montserrat;-inkscape-font-specification:'Montserrat Heavy Italic';text-align:center;text-anchor:middle;fill:#aeaeae;fill-opacity:1;stroke-width:0.419837"
       x="56.167255"
       y="205.40598"
       id="text26"
       transform="scale(1.8146231,0.55107863)"><tspan
         sodipodi:role="line"
         id="tspan26"
         x="56.167255"
         y="205.40598"
         style="font-style:italic;font-variant:normal;font-weight:900;font-stretch:normal;font-family:Montserrat;-inkscape-font-specification:'Montserrat Heavy Italic';stroke-width:0.419837">GYM</tspan></text>
    <path
       d="m 113.25706,104.79441 c 0.0329,-0.003 0.0933,0.0509 0.14522,0.0914 h 2.4e-4 c 0.0501,0.0538 0.073,0.0822 0.16232,0.17266 0.0893,0.0904 0.17525,0.18956 0.19117,0.22027 0.0506,0.0974 0.009,0.50829 -0.0983,0.96366 -0.22966,0.97718 -0.43212,1.56976 -0.6512,1.90598 -0.0413,0.0635 -0.0831,0.14046 -0.0929,0.17124 -0.0701,0.22073 -0.15468,0.52304 -0.14826,0.52945 0.004,0.004 0.0591,-0.0171 0.12198,-0.0477 0.10353,-0.0501 0.29105,-0.1125 0.42485,-0.14146 0.0282,-0.006 0.10039,-0.0586 0.16046,-0.11685 0.14461,-0.13998 0.38626,-0.3263 0.51513,-0.39738 0.0571,-0.0315 0.18029,-0.0851 0.27375,-0.11915 0.2951,-0.10765 0.54443,-0.24531 0.88016,-0.48536 l 0.14427,-0.10292 0.008,-0.16703 c 0.007,-0.13841 0.0176,-0.18603 0.064,-0.27681 0.0638,-0.12476 0.11212,-0.15676 0.23786,-0.15715 0.12987,-4.8e-4 0.16953,-0.0216 0.38073,-0.2041 0.10542,-0.0911 0.20638,-0.17685 0.22449,-0.19071 0.03,-0.023 0.0433,-0.004 0.14896,0.21581 0.15606,0.32429 0.15885,0.35944 0.0434,0.56511 -0.0718,0.12787 -0.11701,0.18311 -0.21464,0.26157 -0.41195,0.33102 -0.60285,0.49567 -0.81283,0.70069 -0.48715,0.47567 -0.96041,0.81355 -1.38215,0.98712 -0.22375,0.0921 -0.43016,0.209 -0.54355,0.30777 l -0.0849,0.074 0.0601,0.0481 c 0.0331,0.0264 0.10265,0.10638 0.15458,0.17783 l 0.0943,0.12994 0.25149,0.0574 c 0.65849,0.15097 0.95474,0.18083 1.65777,0.16681 0.5693,-0.0115 0.90537,-0.0469 0.96976,-0.10255 0.0211,-0.0182 0.0556,-0.0501 0.0769,-0.0713 0.0847,-0.0838 0.16613,-0.14122 0.20057,-0.14122 0.0199,0 0.0699,0.0305 0.11096,0.0676 l 0.0746,0.0673 0.26414,-0.0863 c 0.14524,-0.0475 0.28688,-0.0863 0.31481,-0.0863 0.0717,0 0.36688,0.30196 0.36688,0.37531 0,0.0297 -0.0366,0.10216 -0.0896,0.17688 -0.0493,0.0695 -0.11207,0.15951 -0.13957,0.20009 -0.0471,0.0694 -0.0573,0.0746 -0.17008,0.0863 -0.32451,0.034 -0.53625,0.0475 -0.74221,0.048 -0.20984,7.1e-4 -0.24274,0.006 -0.46354,0.0756 -0.4772,0.15047 -0.8186,0.20992 -1.27683,0.22215 l -0.3425,0.009 -0.007,0.1349 c -0.005,0.1028 -0.0202,0.16122 -0.0626,0.24514 -0.0711,0.14049 -0.11603,0.17478 -0.25051,0.19094 -0.49705,0.0596 -0.93001,0.2551 -1.23393,0.55688 -0.0893,0.0887 -0.21357,0.23804 -0.27608,0.33174 -0.0625,0.0936 -0.12529,0.17938 -0.13958,0.1907 -0.0307,0.0242 -0.42045,0.12041 -0.48793,0.12028 -0.029,-1e-5 -0.0763,-0.0293 -0.12576,-0.0778 l -0.079,-0.0777 -0.0139,0.12971 c -0.008,0.0714 -0.0347,0.20167 -0.06,0.28993 -0.0196,0.0681 -0.031,0.12183 -0.0394,0.2062 h -1.84147 v -3.79973 c 0.0308,0.0102 0.0655,0.0152 0.10887,0.006 0.0162,0 0.0284,-0.0425 0.0364,-0.12745 0.0193,-0.20394 0.0148,-0.2659 -0.0253,-0.34461 -0.0333,-0.0654 -0.0377,-0.11084 -0.0375,-0.39082 2.3e-4,-0.3472 0.0177,-0.44839 0.10511,-0.60896 0.0648,-0.11914 0.15201,-0.19839 0.29017,-0.2632 0.0886,-0.0415 0.13089,-0.049 0.27469,-0.0488 0.14722,1.2e-4 0.18415,0.007 0.27679,0.0526 0.13529,0.0663 0.24662,0.17706 0.30778,0.30636 0.0962,0.2033 0.11211,0.76086 0.0279,0.97447 -0.0396,0.1005 -0.0398,0.11378 -0.008,0.42224 0.004,0.0421 0.0444,0.0413 0.0774,-9.1e-4 0.0119,-0.0155 0.0274,-0.0765 0.0345,-0.13582 0.0429,-0.35998 0.21141,-0.70746 0.47995,-0.99017 0.13191,-0.13882 0.13265,-0.14034 0.17124,-0.31762 0.0813,-0.37342 0.218,-0.69718 0.43421,-1.02841 0.18411,-0.28202 0.25432,-0.468 0.34298,-0.90854 0.0225,-0.1116 0.0214,-0.12054 -0.0296,-0.23411 -0.0315,-0.0702 -0.0569,-0.16538 -0.0624,-0.23435 -0.009,-0.1079 -0.006,-0.118 0.038,-0.14684 0.0744,-0.0488 0.1196,-0.14146 0.16373,-0.33522 0.0225,-0.0986 0.0451,-0.19389 0.0504,-0.21183 0.005,-0.0182 0.0444,-0.0429 0.0887,-0.0561 z m -0.41873,6.15777 c -0.0343,-9.1e-4 -0.0556,0.0197 -0.114,0.0611 -0.058,0.0411 -0.13093,0.0922 -0.16208,0.11379 -0.0905,0.0627 -0.24929,0.25848 -0.32234,0.39738 -0.037,0.0704 -0.0646,0.13478 -0.0612,0.14286 0.003,0.007 0.0953,-0.0427 0.20432,-0.11263 0.10903,-0.0698 0.29581,-0.18865 0.41522,-0.26389 0.1194,-0.0753 0.24134,-0.1567 0.27071,-0.18086 l 0.0533,-0.0439 -0.091,-0.0398 c -0.11103,-0.0485 -0.1585,-0.0724 -0.19283,-0.0739 z m -2.07887,0.29909 -0.0809,0.0474 c -0.0833,0.0488 -0.23813,0.0941 -0.39575,0.11582 -0.10184,0.014 -0.11066,0.0367 -0.0605,0.15671 0.056,0.13408 0.18181,0.23128 0.34484,0.26626 0.12332,0.0264 0.1216,0.0264 0.15975,-0.003 0.0359,-0.027 0.0418,-0.0872 0.0364,-0.37935 z m 0.18861,0.005 v 0.26179 c 0,0.14407 0.005,0.2754 0.0115,0.29183 0.0148,0.0386 0.17492,0.0385 0.28081,-2.4e-4 0.13427,-0.0491 0.27257,-0.22175 0.27375,-0.3418 4.7e-4,-0.0337 -0.013,-0.0436 -0.0704,-0.0522 -0.17756,-0.0272 -0.27007,-0.0526 -0.37859,-0.10395 z m 0.4985,0.66059 c -0.004,-0.004 -0.048,0.0115 -0.0971,0.0366 -0.0653,0.0326 -0.13143,0.0468 -0.24536,0.0527 l -0.156,0.007 v 0.14873 0.14875 h 0.0723 c 0.0414,0 0.11519,-0.0222 0.17357,-0.0521 0.0559,-0.0286 0.12613,-0.0826 0.15599,-0.1203 0.0522,-0.0657 0.11302,-0.20604 0.0967,-0.22262 z m -1.15743,9.2e-4 c -0.0331,-0.005 -0.0271,0.042 0.0192,0.13442 0.0773,0.15396 0.18928,0.23312 0.35798,0.2531 l 0.0931,0.0115 v -0.15363 -0.15367 h -0.11589 c -0.12194,0 -0.24611,-0.0278 -0.30845,-0.0695 -0.0197,-0.013 -0.035,-0.0203 -0.046,-0.0219 z m 0.98478,0.50877 -0.0903,0.0272 c -0.0497,0.0149 -0.11911,0.0272 -0.15414,0.0272 -0.035,0 -0.0678,0.0115 -0.0729,0.0246 -0.005,0.0135 -0.007,0.13049 -0.004,0.25971 l 0.005,0.23481 0.0966,-0.0899 c 0.10657,-0.0992 0.18843,-0.25588 0.20786,-0.39762 z m -0.81213,9.1e-4 c -0.0256,-0.006 -0.026,0.0142 -0.0164,0.0841 0.0233,0.17039 0.1608,0.39596 0.28149,0.46189 0.0315,0.0172 0.0333,0.003 0.0284,-0.2327 l -0.005,-0.25102 -0.10839,-0.0137 c -0.0597,-0.007 -0.12511,-0.0223 -0.14522,-0.0331 -0.0146,-0.007 -0.0259,-0.0131 -0.0345,-0.0154 z"
       fill="#FF7F2A"
       id="path26"
       style="fill:#fafafa;fill-opacity:1;stroke-width:0.337878" />
  </g>
</svg>
