<?xml version="1.0" encoding="UTF-8" standalone="no"?>
<svg
   width="107"
   height="26"
   viewBox="0 0 107 26"
   fill="none"
   version="1.1"
   id="svg26"
   sodipodi:docname="logoMono.svg"
   inkscape:version="1.3 (0e150ed6c4, 2023-07-21)"
   xmlns:inkscape="http://www.inkscape.org/namespaces/inkscape"
   xmlns:sodipodi="http://sodipodi.sourceforge.net/DTD/sodipodi-0.dtd"
   xmlns="http://www.w3.org/2000/svg"
   xmlns:svg="http://www.w3.org/2000/svg">
  <sodipodi:namedview
     id="namedview26"
     pagecolor="#505050"
     bordercolor="#eeeeee"
     borderopacity="1"
     inkscape:showpageshadow="0"
     inkscape:pageopacity="0"
     inkscape:pagecheckerboard="0"
     inkscape:deskcolor="#505050"
     inkscape:zoom="12.920561"
     inkscape:cx="13.002531"
     inkscape:cy="13.196021"
     inkscape:window-width="3440"
     inkscape:window-height="1369"
     inkscape:window-x="-8"
     inkscape:window-y="-8"
     inkscape:window-maximized="1"
     inkscape:current-layer="g26" />
  <g
     clip-path="url(#clip0_2016_488)"
     id="g26">
    <path
       d="M47.4961 0.537109H55.8571L53.2036 3.19069H44.8426L47.4961 0.537109Z"
       fill="#959595"
       id="path1" />
    <path
       d="M55.8571 0.537109V22.8465L53.2036 25.5V3.19069L55.8571 0.537109Z"
       fill="#959595"
       id="path2" />
    <path
       d="M55.8571 22.8465H47.4961L44.8426 25.5H53.2036L55.8571 22.8465Z"
       fill="#959595"
       id="path3" />
    <path
       d="M47.4961 22.8465V0.537109L44.8426 3.19069V25.5L47.4961 22.8465Z"
       fill="#959595"
       id="path4" />
    <path
       d="M36.0946 22.8465H27.7332L25.0797 25.5H33.4411L36.0946 22.8465Z"
       fill="#959595"
       id="path5" />
    <path
       d="M27.7332 22.8465V0.537109L25.0797 3.19069V25.5L27.7332 22.8465Z"
       fill="#959595"
       id="path6" />
    <path
       d="M27.7332 0.537109H36.0946L33.4411 3.19069H25.0797L27.7332 0.537109Z"
       fill="#959595"
       id="path7" />
    <path
       d="M36.0946 0.537109V22.8465L33.4411 25.5V3.19069L36.0946 0.537109Z"
       fill="#959595"
       id="path8" />
    <path
       d="M48.0872 17.1479H35.5032L32.8496 19.8015H45.4336L48.0872 17.1479Z"
       fill="#959595"
       id="path9" />
    <path
       d="M35.5032 17.148V10.4201L32.8496 13.0736V19.8015L35.5032 17.148Z"
       fill="#959595"
       id="path10" />
    <path
       d="M35.5032 10.4201H48.0872L45.4336 13.0736H32.8496L35.5032 10.4201Z"
       fill="#959595"
       id="path11" />
    <path
       d="M48.0872 10.4201V17.148L45.4336 19.8015V13.0736L48.0872 10.4201Z"
       fill="#959595"
       id="path12" />
    <path
       d="M47.4961 0.537109H55.8573V22.8464H47.4961V0.537109ZM36.0945 22.8464H27.7334V0.537109H36.0945V22.8464ZM48.0873 17.148H35.5033V10.4201H48.0873V17.148Z"
       fill="white"
       id="path13" />
    <path
       d="M68.291 10.3214H81.9306L79.2771 12.975H65.6375L68.291 10.3214Z"
       fill="#959595"
       id="path14" />
    <path
       d="M81.9306 10.3214V16.6988L79.2771 19.3523V12.975L81.9306 10.3214Z"
       fill="#959595"
       id="path15" />
    <path
       d="M81.9306 16.6988H68.291L65.6375 19.3523H79.2771L81.9306 16.6988Z"
       fill="#959595"
       id="path16" />
    <path
       d="M68.291 16.6988V10.3214L65.6375 12.975V19.3523L68.291 16.6988Z"
       fill="#959595"
       id="path17" />
    <path
       d="M68.8824 22.8465H60.521L57.8675 25.5H66.2289L68.8824 22.8465Z"
       fill="#959595"
       id="path18" />
    <path
       d="M60.521 22.8465V0.537109L57.8675 3.19069V25.5L60.521 22.8465Z"
       fill="#959595"
       id="path19" />
    <path
       d="M60.521 0.537109H83.7045L81.0506 3.19069H57.8675L60.521 0.537109Z"
       fill="#959595"
       id="path20" />
    <path
       d="M83.7045 0.537109V6.91439L81.0506 9.56786V3.19069L83.7045 0.537109Z"
       fill="#959595"
       id="path21" />
    <path
       d="M83.7045 6.9144H68.8824L66.2289 9.56787H81.0506L83.7045 6.9144Z"
       fill="#959595"
       id="path22" />
    <path
       d="M68.8824 6.9144V22.8465L66.2289 25.5V9.56787L68.8824 6.9144Z"
       fill="#959595"
       id="path23" />
    <path
       d="M68.2911 10.3214H81.9308V16.6986H68.2911V10.3214ZM68.8823 22.8465H60.5211V0.53714H83.7044V6.91441H68.8823V22.8465Z"
       fill="white"
       id="path24" />
    <path
       d="M13.896 0.573276C13.7986 0.564214 13.62 0.723676 13.4662 0.844047H13.4656C13.3173 1.00312 13.2494 1.08745 12.9851 1.35504C12.7209 1.62261 12.4664 1.91607 12.4193 2.00696C12.2695 2.29555 12.3934 3.51132 12.7102 4.85906C13.39 7.75115 13.9892 9.50499 14.6375 10.5001C14.7598 10.6878 14.8835 10.9158 14.9124 11.0069C15.1198 11.6602 15.3703 12.5549 15.3512 12.5739C15.3386 12.5865 15.1762 12.5231 14.9902 12.433C14.6838 12.2846 14.1288 12.0998 13.7329 12.0143C13.6494 11.9963 13.4357 11.8406 13.258 11.6686C12.8299 11.2543 12.1148 10.7029 11.7333 10.4925C11.5643 10.3992 11.1997 10.2407 10.9231 10.1398C10.0497 9.82116 9.31181 9.4138 8.31817 8.70329L7.89119 8.3985L7.86758 7.90418C7.84797 7.49453 7.81544 7.35356 7.67804 7.08493C7.48915 6.71558 7.3462 6.62093 6.97404 6.61976C6.58969 6.61838 6.47231 6.55576 5.84723 6.01574C5.53522 5.7462 5.2364 5.4923 5.1828 5.45129C5.09404 5.38339 5.05464 5.44016 4.74193 6.09003C4.28007 7.04982 4.27181 7.15382 4.61349 7.76254C4.82593 8.141 4.95982 8.30448 5.24875 8.53666C6.46799 9.51641 7.03297 10.0037 7.65444 10.6105C9.09622 12.0183 10.497 13.0183 11.7451 13.532C12.4073 13.8045 13.0182 14.1506 13.3538 14.4429L13.6051 14.6623L13.4274 14.8046C13.3294 14.8829 13.1236 15.1196 12.9698 15.3309L12.6907 15.7155L11.9465 15.8856C9.99752 16.3324 9.12072 16.4208 7.04 16.3793C5.35507 16.3456 4.36042 16.2403 4.16984 16.0758C4.10735 16.0219 4.00513 15.9271 3.94212 15.8648C3.69145 15.6168 3.45046 15.4468 3.34851 15.4468C3.28947 15.4468 3.1416 15.537 3.02012 15.6468L2.79934 15.846L2.01758 15.5905C1.58772 15.4501 1.16851 15.3351 1.08585 15.3351C0.873594 15.3351 0 16.2288 0 16.4459C0 16.5341 0.108288 16.7482 0.265215 16.9694C0.411184 17.1751 0.596886 17.4415 0.678311 17.5616C0.81762 17.767 0.847855 17.7822 1.18167 17.8171C2.14211 17.9175 2.76878 17.9577 3.37837 17.9594C3.99941 17.9615 4.09677 17.9769 4.75026 18.183C6.16262 18.6283 7.17304 18.8043 8.52923 18.8405L9.54288 18.8675L9.56301 19.2668C9.57838 19.5709 9.62271 19.7439 9.74838 19.9923C9.95876 20.4081 10.0918 20.5096 10.4899 20.5574C11.9609 20.734 13.2424 21.3124 14.1418 22.2056C14.4061 22.4681 14.7739 22.9101 14.959 23.1874C15.144 23.4646 15.3297 23.7183 15.372 23.7518C15.4627 23.8236 16.6164 24.1082 16.8162 24.108C16.902 24.1079 17.042 24.021 17.1883 23.8775L17.4223 23.6477L17.4632 24.0316C17.4857 24.2427 17.5658 24.6285 17.641 24.8897C17.6989 25.0913 17.7327 25.2501 17.7576 25.5H23.2077V14.2541C23.1165 14.2857 23.0138 14.2989 22.8855 14.2735C22.8377 14.2735 22.8017 14.1478 22.7779 13.8965C22.7209 13.2929 22.7341 13.1095 22.8529 12.8766C22.9516 12.6831 22.9646 12.5486 22.964 11.7199C22.9633 10.6923 22.9116 10.3928 22.653 9.91758C22.4611 9.56502 22.2031 9.33041 21.7941 9.1386C21.5319 9.0156 21.4067 8.99379 20.9811 8.99419C20.5454 8.99453 20.4361 9.01545 20.1619 9.14971C19.7616 9.34573 19.432 9.67372 19.251 10.0564C18.9664 10.6581 18.9192 12.3083 19.1684 12.9405C19.2856 13.2378 19.2861 13.2773 19.1913 14.1902C19.1783 14.315 19.0599 14.3123 18.9622 14.1846C18.9271 14.139 18.881 13.9581 18.8601 13.7826C18.733 12.7172 18.2344 11.6888 17.4396 10.8521C17.0493 10.4412 17.047 10.4367 16.9328 9.91203C16.6921 8.80683 16.2876 7.84861 15.6477 6.86831C15.1028 6.03363 14.8951 5.4832 14.6326 4.17937C14.5661 3.84899 14.5693 3.82244 14.7201 3.48647C14.8134 3.27863 14.8884 2.99701 14.9048 2.79289C14.9305 2.47339 14.9227 2.4437 14.7923 2.35827C14.5721 2.21396 14.4383 1.9396 14.3077 1.36615C14.2412 1.0742 14.1741 0.792307 14.1584 0.739209C14.1425 0.685156 14.027 0.612081 13.896 0.573276ZM15.1353 18.7981C15.2368 18.794 15.2999 18.8562 15.4727 18.9786C15.6444 19.1002 15.8603 19.2515 15.9525 19.3154C16.2203 19.501 16.6902 20.0804 16.9064 20.4915C17.016 20.6999 17.0975 20.8904 17.0876 20.9143C17.0777 20.9382 16.8056 20.788 16.4829 20.581C16.1602 20.3741 15.6074 20.0227 15.254 19.8C14.9006 19.5772 14.5397 19.3362 14.4528 19.2647L14.2952 19.1348L14.5646 19.0168C14.8932 18.8732 15.0338 18.8024 15.1353 18.7981ZM21.288 19.6833L21.5275 19.8236C21.774 19.968 22.2323 20.1021 22.6988 20.1665C23.0002 20.2082 23.0263 20.2752 22.8779 20.6303C22.7121 21.0271 22.3399 21.3148 21.8573 21.4183C21.4923 21.4966 21.4974 21.4967 21.3845 21.4114C21.2782 21.3315 21.2609 21.1531 21.2769 20.2887L21.288 19.6833ZM20.7298 19.6986V20.4734C20.7298 20.8998 20.7144 21.2885 20.6958 21.3371C20.6519 21.4514 20.1781 21.4509 19.8647 21.3364C19.4674 21.191 19.0581 20.6801 19.0545 20.3248C19.0531 20.2251 19.0931 20.196 19.2628 20.17C19.7884 20.0896 20.0621 20.0144 20.3834 19.8625L20.7298 19.6986ZM19.2545 21.6537C19.2672 21.6407 19.3963 21.6893 19.5419 21.762C19.7354 21.8586 19.9309 21.9005 20.2681 21.9182L20.7298 21.9425V22.3827V22.8229H20.516C20.3932 22.8229 20.1751 22.7571 20.0022 22.6687C19.8369 22.5842 19.6289 22.424 19.5405 22.3126C19.3861 22.1178 19.2061 21.7028 19.2545 21.6537ZM22.68 21.6586C22.7779 21.6452 22.7603 21.783 22.6231 22.0564C22.3944 22.5121 22.063 22.7464 21.5636 22.8055L21.288 22.8381V22.3834V21.9286H21.631C21.992 21.9286 22.3595 21.8461 22.544 21.7231C22.6021 21.6844 22.6474 21.6631 22.68 21.6586ZM19.7654 23.1644L20.0327 23.245C20.1798 23.2893 20.3853 23.3255 20.4889 23.3255C20.5925 23.3255 20.6894 23.3583 20.7048 23.3984C20.7202 23.4385 20.7259 23.7846 20.7173 24.167L20.7013 24.862L20.4153 24.5961C20.0999 24.3025 19.8577 23.8388 19.8002 23.4193L19.7654 23.1644ZM22.169 23.17C22.2447 23.1495 22.2459 23.212 22.2176 23.4186C22.1485 23.9229 21.7417 24.5905 21.3845 24.7856C21.2911 24.8366 21.2858 24.7948 21.3005 24.0969L21.3165 23.354L21.6372 23.3137C21.8139 23.2917 22.0075 23.2477 22.067 23.2158C22.1103 23.1926 22.1438 23.1768 22.169 23.17Z"
       fill="#FF7F2A"
       id="path25"
       style="fill:#ffffff;fill-opacity:1" />
  </g>
  <defs
     id="defs26">
    <clipPath
       id="clip0_2016_488">
      <rect
         width="106.863"
         height="25"
         fill="white"
         transform="translate(0 0.5)"
         id="rect26" />
    </clipPath>
  </defs>
</svg>
