<?xml version="1.0" encoding="UTF-8" standalone="no"?>
<!-- Created with Inkscape (http://www.inkscape.org/) -->

<svg
   width="28.273638mm"
   height="8.7661238mm"
   viewBox="0 0 28.273638 8.7661238"
   version="1.1"
   id="svg1"
   sodipodi:docname="hfLogo3.svg"
   inkscape:version="1.3 (0e150ed6c4, 2023-07-21)"
   xmlns:inkscape="http://www.inkscape.org/namespaces/inkscape"
   xmlns:sodipodi="http://sodipodi.sourceforge.net/DTD/sodipodi-0.dtd"
   xmlns="http://www.w3.org/2000/svg"
   xmlns:svg="http://www.w3.org/2000/svg">
  <sodipodi:namedview
     id="namedview1"
     pagecolor="#505050"
     bordercolor="#eeeeee"
     borderopacity="1"
     inkscape:showpageshadow="0"
     inkscape:pageopacity="0"
     inkscape:pagecheckerboard="0"
     inkscape:deskcolor="#505050"
     inkscape:document-units="mm"
     inkscape:zoom="8.3597643"
     inkscape:cx="52.872304"
     inkscape:cy="26.137101"
     inkscape:window-width="3440"
     inkscape:window-height="1369"
     inkscape:window-x="-8"
     inkscape:window-y="-8"
     inkscape:window-maximized="1"
     inkscape:current-layer="layer1" />
  <defs
     id="defs1" />
  <g
     inkscape:label="Layer 1"
     inkscape:groupmode="layer"
     id="layer1"
     transform="translate(-88.106295,-104.77483)">
    <g
       id="g1"
       transform="translate(2.0757119,0.21155737)">
      <path
         d="m 100.67293,104.78482 h 2.21218 l -0.70207,0.70209 h -2.212205 z"
         fill="#959595"
         id="path1"
         style="fill:#fafafa;fill-opacity:1;stroke-width:0.264583" />
      <path
         d="m 102.88511,104.78482 v 5.90269 l -0.70207,0.70207 v -5.90267 z"
         fill="#959595"
         id="path2"
         style="fill:#fafafa;fill-opacity:1;stroke-width:0.264583" />
      <path
         d="m 102.88511,110.68751 h -2.21218 l -0.702095,0.70207 h 2.212205 z"
         fill="#959595"
         id="path3"
         style="fill:#aeaeae;fill-opacity:1;stroke-width:0.264583" />
      <path
         d="m 100.67293,110.68751 v -5.90269 l -0.702095,0.70209 v 5.90267 z"
         fill="#959595"
         id="path4"
         style="fill:#aeaeae;fill-opacity:1;stroke-width:0.264583" />
      <path
         d="m 97.656287,110.68751 h -2.212288 l -0.702098,0.70207 h 2.212287 z"
         fill="#959595"
         id="path5"
         style="fill:#aeaeae;fill-opacity:1;stroke-width:0.264583" />
      <path
         d="m 95.443999,110.68751 v -5.90269 l -0.702098,0.70209 v 5.90267 z"
         fill="#959595"
         id="path6"
         style="fill:#aeaeae;fill-opacity:1;stroke-width:0.264583" />
      <path
         d="m 95.443999,104.78482 h 2.212288 l -0.702099,0.70209 h -2.212287 z"
         fill="#959595"
         id="path7"
         style="fill:#aeaeae;fill-opacity:1;stroke-width:0.264583" />
      <path
         d="m 97.656287,104.78482 v 5.90269 l -0.702072,0.70207 v -5.90267 z"
         fill="#959595"
         id="path8"
         style="fill:#aeaeae;fill-opacity:1;stroke-width:0.264583" />
      <path
         d="m 100.8293,109.17976 h -3.329488 l -0.702098,0.7021 h 3.329516 z"
         fill="#959595"
         id="path9"
         style="fill:#aeaeae;fill-opacity:1;stroke-width:0.264583" />
      <path
         d="m 97.499812,109.17978 v -1.78009 l -0.702098,0.70208 v 1.78009 z"
         fill="#959595"
         id="path10"
         style="fill:#fafafa;fill-opacity:1;stroke-width:0.264583" />
      <path
         d="m 97.499812,107.39969 h 3.329488 l -0.70207,0.70208 h -3.329516 z"
         fill="#959595"
         id="path11"
         style="fill:#fafafa;fill-opacity:1;stroke-width:0.264583" />
      <path
         d="m 100.8293,107.39969 v 1.78009 l -0.70207,0.70208 v -1.78009 z"
         fill="#959595"
         id="path12"
         style="fill:#aeaeae;fill-opacity:1;stroke-width:0.264583" />
      <path
         d="m 100.67293,104.78482 h 2.21224 v 5.90267 h -2.21224 z m -3.01667,5.90267 h -2.212234 v -5.90267 h 2.212234 z m 3.1731,-1.50771 h -3.329522 v -1.78009 h 3.329522 z"
         fill="white"
         id="path13"
         style="fill:#fafafa;fill-opacity:1;stroke-width:0.264583" />
      <path
         d="m 106.17492,107.37358 h 3.60881 l -0.70207,0.7021 h -3.60884 z"
         fill="#959595"
         id="path14"
         style="fill:#fafafa;fill-opacity:1;stroke-width:0.264583" />
      <path
         d="m 109.78373,107.37358 v 1.68735 l -0.7021,0.70208 v -1.68733 z"
         fill="#959595"
         id="path15"
         style="fill:#fafafa;fill-opacity:1;stroke-width:0.264583" />
      <path
         d="m 109.78373,109.06093 h -3.60881 l -0.7021,0.70208 h 3.60884 z"
         fill="#959595"
         id="path16"
         style="fill:#aeaeae;fill-opacity:1;stroke-width:0.264583" />
      <path
         d="m 106.17492,109.06093 v -1.68735 l -0.7021,0.7021 v 1.68733 z"
         fill="#959595"
         id="path17"
         style="fill:#fafafa;fill-opacity:1;stroke-width:0.264583" />
      <path
         d="m 106.33139,110.68751 h -2.21229 l -0.70207,0.70207 h 2.21229 z"
         fill="#959595"
         id="path18"
         style="fill:#aeaeae;fill-opacity:1;stroke-width:0.264583" />
      <path
         d="m 104.1191,110.68751 v -5.90269 l -0.70207,0.70209 v 5.90267 z"
         fill="#959595"
         id="path19"
         style="fill:#aeaeae;fill-opacity:1;stroke-width:0.264583" />
      <path
         d="m 104.1191,104.78482 h 6.13397 l -0.70218,0.70209 h -6.13386 z"
         fill="#959595"
         id="path20"
         style="fill:#aeaeae;fill-opacity:1;stroke-width:0.264583" />
      <path
         d="m 110.25307,104.78482 v 1.68732 l -0.70218,0.70207 v -1.6873 z"
         fill="#959595"
         id="path21"
         style="fill:#fafafa;fill-opacity:1;stroke-width:0.264583" />
      <path
         d="m 110.25307,106.47214 h -3.92168 l -0.70207,0.70207 h 3.92157 z"
         fill="#959595"
         id="path22"
         style="fill:#aeaeae;fill-opacity:1;stroke-width:0.264583" />
      <path
         d="m 106.33139,106.47214 v 4.21537 l -0.70207,0.70207 v -4.21537 z"
         fill="#959595"
         id="path23"
         style="fill:#aeaeae;fill-opacity:1;stroke-width:0.264583" />
      <path
         d="m 106.17494,107.37358 h 3.60881 v 1.6873 h -3.60881 z m 0.15643,3.31393 h -2.21224 v -5.90268 h 6.13389 v 1.68732 h -3.92165 z"
         fill="white"
         id="path24"
         style="fill:#fafafa;fill-opacity:1;stroke-width:0.264583" />
    </g>
    <text
       xml:space="preserve"
       style="font-style:italic;font-weight:900;font-size:3.38328px;line-height:1;font-family:Montserrat;-inkscape-font-specification:'Montserrat Heavy Italic';text-align:center;text-anchor:middle;fill:#aeaeae;fill-opacity:1;stroke-width:0.422911"
       x="55.687138"
       y="212.03784"
       id="text26"
       transform="scale(1.8716298,0.53429369)"><tspan
         sodipodi:role="line"
         id="tspan26"
         x="55.687138"
         y="212.03784"
         style="stroke-width:0.422911">GYM</tspan></text>
    <g
       id="g26"
       style="fill:#e5864a;fill-opacity:1"
       transform="matrix(1.3756709,0,0,1.3756709,-32.426049,-38.197605)">
      <path
         d="m 91.408958,104.11077 c -0.02315,-0.002 -0.0656,0.0357 -0.102151,0.0643 h -1.66e-4 c -0.03522,0.0378 -0.05138,0.0579 -0.114178,0.12144 -0.06282,0.0635 -0.12328,0.13335 -0.134474,0.15494 -0.0356,0.0685 -0.0062,0.35755 0.06914,0.67787 0.161545,0.68737 0.303958,1.10421 0.458065,1.34071 0.02906,0.0447 0.05847,0.0988 0.06533,0.12045 0.04929,0.15527 0.108805,0.36792 0.104289,0.37243 -0.0029,0.002 -0.04159,-0.0121 -0.0858,-0.0336 -0.07282,-0.0353 -0.20473,-0.0791 -0.298848,-0.0995 -0.01983,-0.005 -0.07062,-0.0412 -0.112871,-0.0822 -0.101723,-0.0985 -0.271705,-0.22953 -0.362354,-0.27954 -0.04017,-0.0222 -0.126822,-0.0598 -0.192562,-0.0838 -0.207582,-0.0757 -0.382965,-0.17255 -0.619125,-0.34142 l -0.101481,-0.0723 -0.0055,-0.11749 c -0.0046,-0.0973 -0.01239,-0.13086 -0.04505,-0.19472 -0.04489,-0.0878 -0.07887,-0.11026 -0.167321,-0.11055 -0.09135,-3.2e-4 -0.119248,-0.0151 -0.267811,-0.14356 -0.07416,-0.0641 -0.145178,-0.1244 -0.157917,-0.13415 -0.02109,-0.0162 -0.03046,-0.002 -0.104781,0.15182 -0.109772,0.2281 -0.111734,0.25282 -0.03052,0.39751 0.05049,0.0899 0.08231,0.12879 0.150986,0.18398 0.289775,0.23286 0.424055,0.34866 0.57176,0.49289 0.342674,0.3346 0.67558,0.57227 0.972242,0.69435 0.157386,0.0648 0.30258,0.14703 0.382342,0.2165 l 0.05973,0.0521 -0.04226,0.0338 c -0.02327,0.0186 -0.0722,0.0748 -0.108735,0.12508 l -0.06634,0.0914 -0.176899,0.0405 c -0.463198,0.1062 -0.67159,0.12721 -1.166119,0.11735 -0.400458,-0.008 -0.63686,-0.033 -0.682153,-0.0721 -0.01485,-0.0129 -0.03915,-0.0354 -0.05413,-0.0501 -0.05957,-0.0589 -0.116853,-0.0994 -0.141081,-0.0994 -0.01403,0 -0.04917,0.0215 -0.07805,0.0475 l -0.05246,0.0474 -0.185803,-0.0607 c -0.102165,-0.0333 -0.2018,-0.0607 -0.221443,-0.0607 -0.05045,0 -0.258077,0.21242 -0.258077,0.26401 0,0.0209 0.02573,0.0719 0.06303,0.12443 0.03469,0.0488 0.07884,0.1122 0.09818,0.14075 0.03311,0.0488 0.0403,0.0524 0.119633,0.0607 0.22827,0.0239 0.377211,0.0334 0.522094,0.0338 0.147603,4.9e-4 0.170745,0.005 0.326061,0.0532 0.335676,0.10585 0.575826,0.14767 0.898151,0.15627 l 0.240928,0.007 0.0047,0.0949 c 0.0037,0.0723 0.0142,0.11341 0.04406,0.17244 0.04998,0.0988 0.08162,0.12295 0.176209,0.13432 0.34964,0.0419 0.654192,0.17944 0.867978,0.39172 0.06282,0.0624 0.150232,0.16743 0.194202,0.23335 0.04399,0.0658 0.08813,0.12618 0.09818,0.13413 0.02156,0.0171 0.295759,0.0847 0.343222,0.0846 0.02039,-1e-5 0.05369,-0.0207 0.08846,-0.0548 l 0.05559,-0.0546 0.0098,0.0912 c 0.0054,0.0502 0.02439,0.14187 0.04223,0.20395 0.01379,0.0479 0.0218,0.0857 0.02773,0.14505 h 1.295334 v -2.67283 c -0.02168,0.007 -0.04609,0.0107 -0.07658,0.005 -0.01136,0 -0.01994,-0.03 -0.02557,-0.0897 -0.01354,-0.14346 -0.01041,-0.18705 0.01782,-0.2424 0.02345,-0.046 0.02654,-0.078 0.02642,-0.27492 -1.67e-4,-0.24423 -0.01245,-0.31541 -0.07393,-0.42835 -0.0456,-0.0838 -0.106928,-0.13955 -0.204112,-0.18515 -0.06231,-0.0292 -0.09207,-0.0345 -0.193228,-0.0342 -0.103553,7e-5 -0.12953,0.006 -0.194699,0.0371 -0.09516,0.0466 -0.173477,0.12455 -0.216495,0.2155 -0.06767,0.14301 -0.07886,0.53521 -0.01966,0.68546 0.02785,0.0707 0.028,0.08 0.0054,0.29702 -0.0031,0.0296 -0.03123,0.0291 -0.05448,-7.5e-4 -0.0084,-0.0109 -0.01928,-0.0538 -0.02424,-0.0955 -0.03021,-0.25322 -0.148711,-0.49765 -0.337612,-0.6965 -0.09279,-0.0977 -0.09331,-0.0987 -0.120452,-0.22343 -0.05721,-0.26267 -0.153345,-0.49041 -0.305432,-0.72341 -0.129508,-0.19837 -0.178895,-0.3292 -0.24126,-0.63908 -0.01581,-0.0785 -0.01505,-0.0848 0.02079,-0.16468 0.02218,-0.0494 0.04,-0.11633 0.0439,-0.16485 0.0061,-0.0759 0.0043,-0.083 -0.02674,-0.10329 -0.05234,-0.0344 -0.08413,-0.0995 -0.115176,-0.2358 -0.01581,-0.0694 -0.03175,-0.13639 -0.03548,-0.14901 -0.0037,-0.0128 -0.03124,-0.0302 -0.06237,-0.0395 z m 0.294547,4.33151 c 0.02412,-7.4e-4 0.03909,0.0139 0.08019,0.043 0.04078,0.0289 0.0921,0.0649 0.11401,0.08 0.06367,0.0441 0.175355,0.18182 0.226739,0.27952 0.02606,0.0495 0.04542,0.0948 0.04307,0.10049 -0.0024,0.006 -0.06705,-0.0301 -0.143719,-0.0792 -0.07669,-0.0491 -0.208081,-0.13269 -0.292075,-0.18562 -0.08399,-0.053 -0.169769,-0.11023 -0.190422,-0.12722 l -0.03746,-0.031 0.06403,-0.028 c 0.07809,-0.0341 0.111492,-0.0509 0.135639,-0.052 z m 1.462321,0.21039 0.05692,0.0333 c 0.05859,0.0344 0.16751,0.0662 0.278384,0.0815 0.07164,0.01 0.07784,0.0259 0.04257,0.11024 -0.03941,0.0943 -0.12789,0.16269 -0.242566,0.18729 -0.08675,0.0186 -0.08554,0.0186 -0.112372,-0.001 -0.02527,-0.0189 -0.02938,-0.0614 -0.02557,-0.26683 z m -0.132667,0.003 v 0.18415 c 0,0.10135 -0.0037,0.19373 -0.0081,0.20528 -0.01043,0.0271 -0.123043,0.027 -0.197529,-1.6e-4 -0.09445,-0.0346 -0.19173,-0.15599 -0.192562,-0.24044 -3.33e-4,-0.0237 0.0092,-0.0306 0.0495,-0.0367 0.124896,-0.0191 0.18997,-0.0371 0.266311,-0.0731 z m -0.350661,0.46468 c 0.0031,-0.002 0.03373,0.008 0.06834,0.0257 0.04596,0.023 0.09246,0.0329 0.172597,0.0371 l 0.109734,0.006 v 0.10462 0.10462 h -0.05084 c -0.02917,0 -0.08103,-0.0156 -0.122091,-0.0366 -0.03929,-0.0201 -0.08872,-0.0581 -0.109733,-0.0846 -0.03672,-0.0462 -0.0795,-0.14493 -0.068,-0.1566 z m 0.814168,7.4e-4 c 0.02324,-0.003 0.01908,0.0295 -0.01352,0.0946 -0.05435,0.1083 -0.133142,0.16398 -0.251812,0.17803 l -0.06551,0.008 v -0.10808 -0.10809 h 0.08152 c 0.08578,0 0.17312,-0.0196 0.216971,-0.0488 0.01383,-0.009 0.0246,-0.0143 0.03234,-0.0154 z m -0.692718,0.35788 0.06352,0.0191 c 0.03496,0.0105 0.08378,0.0191 0.108425,0.0191 0.02463,0 0.04765,0.008 0.05131,0.0174 0.0037,0.01 0.0051,0.0918 0.0029,0.18268 l -0.0037,0.16517 -0.06797,-0.0632 c -0.07496,-0.0698 -0.132549,-0.17998 -0.146215,-0.27968 z m 0.571267,7.5e-4 c 0.01799,-0.005 0.01828,0.01 0.01155,0.0591 -0.01642,0.11985 -0.113108,0.27853 -0.198005,0.3249 -0.02219,0.0122 -0.02345,0.001 -0.01996,-0.16369 l 0.0037,-0.17656 0.07625,-0.01 c 0.04196,-0.006 0.08801,-0.0157 0.102151,-0.0233 0.0103,-0.006 0.01826,-0.009 0.02424,-0.0108 z"
         fill="#FF7F2A"
         id="path25"
         style="fill:#e5864a;fill-opacity:1;stroke-width:0.237672" />
    </g>
  </g>
</svg>
