<?xml version="1.0" encoding="UTF-8" standalone="no"?>
<svg
   width="122"
   height="43"
   viewBox="0 0 122 43"
   fill="none"
   version="1.1"
   id="svg18"
   sodipodi:docname="hfLogo.svg"
   inkscape:version="1.3 (0e150ed6c4, 2023-07-21)"
   xmlns:inkscape="http://www.inkscape.org/namespaces/inkscape"
   xmlns:sodipodi="http://sodipodi.sourceforge.net/DTD/sodipodi-0.dtd"
   xmlns="http://www.w3.org/2000/svg"
   xmlns:svg="http://www.w3.org/2000/svg">
  <sodipodi:namedview
     id="namedview18"
     pagecolor="#505050"
     bordercolor="#eeeeee"
     borderopacity="1"
     inkscape:showpageshadow="0"
     inkscape:pageopacity="0"
     inkscape:pagecheckerboard="0"
     inkscape:deskcolor="#505050"
     inkscape:zoom="3.4659824"
     inkscape:cx="86.988324"
     inkscape:cy="-7.6457399"
     inkscape:window-width="3440"
     inkscape:window-height="1369"
     inkscape:window-x="-8"
     inkscape:window-y="-8"
     inkscape:window-maximized="1"
     inkscape:current-layer="g18" />
  <g
     clip-path="url(#clip0_59_324)"
     id="g18"
     transform="translate(0,-0.50000024)">
    <path
       d="m 51.1818,8.73721 h 3.6984 l -2.194,8.95949 H 48.9878 Z M 45.5715,17.6967 H 41.873 l 2.194,-8.95949 h 3.6984 z m 4.4663,-3.3022 h -3.9022 l 0.6112,-2.4831 h 3.9021 z"
       fill="#292929"
       id="path1"
       style="fill:#fafafa;fill-opacity:1" />
    <path
       d="m 59.2367,12.065 h 4.8894 l -0.5328,2.1759 h -4.8894 z m -0.5798,3.3534 h 5.5006 l -0.5642,2.2783 h -9.1206 l 2.1939,-8.95949 h 8.917 l -0.5642,2.27829 h -5.2812 z"
       fill="#292929"
       id="path2"
       style="fill:#fafafa;fill-opacity:1" />
    <path
       d="m 63.8284,17.6967 6.9894,-8.95949 h 3.6357 l 2.6014,8.95949 h -3.6827 l -1.7709,-7.5644 h 1.4418 l -5.3126,7.5644 z m 3.2283,-1.5615 1.4731,-2.1759 h 5.0461 l 0.4075,2.1759 z"
       fill="#292929"
       id="path3"
       style="fill:#fafafa;fill-opacity:1" />
    <path
       d="m 77.6504,17.6967 2.194,-8.95949 h 3.6984 l -1.6142,6.61719 h 4.9522 l -0.5799,2.3423 z"
       fill="#292929"
       id="path4"
       style="fill:#fafafa;fill-opacity:1" />
    <path
       d="m 88.6829,17.6967 1.6142,-6.6172 h -3.2126 l 0.5798,-2.34229 h 10.1236 l -0.5798,2.34229 h -3.2126 l -1.6141,6.6172 z"
       fill="#292929"
       id="path5"
       style="fill:#fafafa;fill-opacity:1" />
    <path
       d="m 105.859,8.73721 h 3.698 l -2.194,8.95949 h -3.698 z m -5.611,8.95949 H 96.55 l 2.194,-8.95949 h 3.698 z m 4.467,-3.3022 h -3.902 l 0.611,-2.4831 h 3.902 z"
       fill="#292929"
       id="path6"
       style="fill:#fafafa;fill-opacity:1" />
    <path
       d="m 111.971,17.6967 0.956,-3.9294 0.407,1.8047 -3.307,-6.83479 h 3.714 l 2.257,4.69729 h -2.335 l 4.623,-4.69729 H 122 l -6.629,6.83479 1.254,-1.8047 -0.956,3.9294 z"
       fill="#292929"
       id="path7"
       style="fill:#fafafa;fill-opacity:1" />
    <path
       d="m 46.5744,25.3507 h 4.8268 l -0.5642,2.2782 h -4.8111 z m -1.0029,5.1452 H 41.873 l 2.194,-8.9594 h 8.917 l -0.5642,2.2782 h -5.2185 z"
       fill="#292929"
       id="path8"
       style="fill:#fafafa;fill-opacity:1" />
    <path
       d="m 51.9653,30.4959 2.194,-8.9594 h 3.6984 l -2.194,8.9594 z"
       fill="#292929"
       id="path9"
       style="fill:#fafafa;fill-opacity:1" />
    <path
       d="m 59.8324,30.4959 1.6141,-6.6172 h -3.2126 l 0.5798,-2.3422 h 10.1237 l -0.5799,2.3422 h -3.2126 l -1.6141,6.6172 z"
       fill="#292929"
       id="path10"
       style="fill:#fafafa;fill-opacity:1" />
    <path
       d="m 67.6992,30.4959 2.194,-8.9594 h 3.0402 l 4.1216,5.4525 h -1.2851 l 1.3321,-5.4525 h 3.6044 l -2.194,8.9594 h -3.0402 l -4.1216,-5.4524 h 1.2851 l -1.3321,5.4524 z"
       fill="#292929"
       id="path11"
       style="fill:#fafafa;fill-opacity:1" />
    <path
       d="m 85.0629,24.8643 h 4.8894 l -0.5328,2.1759 h -4.8894 z m -0.5799,3.3534 h 5.5007 l -0.5642,2.2782 h -9.1207 l 2.194,-8.9594 h 8.9169 l -0.5641,2.2782 h -5.2812 z"
       fill="#292929"
       id="path12"
       style="fill:#fafafa;fill-opacity:1" />
    <path
       d="m 95.2023,30.7007 c -0.6478,0 -1.2694,-0.0384 -1.8649,-0.1152 -0.5955,-0.0768 -1.1388,-0.1834 -1.6298,-0.3199 -0.4806,-0.1451 -0.8985,-0.303 -1.2537,-0.4736 l 1.426,-2.2271 c 0.4075,0.1877 0.815,0.3456 1.2224,0.4736 0.4179,0.1194 0.8306,0.209 1.238,0.2688 0.4179,0.0597 0.8306,0.0896 1.2381,0.0896 0.3238,0 0.5902,-0.0214 0.7992,-0.064 0.2194,-0.0427 0.3813,-0.1024 0.4858,-0.1792 0.1149,-0.0854 0.1724,-0.1792 0.1724,-0.2816 0,-0.1365 -0.094,-0.2475 -0.2821,-0.3328 -0.1881,-0.0853 -0.4388,-0.1621 -0.7522,-0.2304 -0.303,-0.0682 -0.6425,-0.1365 -1.0186,-0.2048 -0.3657,-0.0768 -0.7366,-0.1706 -1.1127,-0.2815 -0.3761,-0.1195 -0.7209,-0.2688 -1.0343,-0.448 -0.303,-0.1792 -0.5485,-0.4053 -0.7366,-0.6784 -0.188,-0.273 -0.282,-0.6058 -0.282,-0.9983 0,-0.6827 0.2194,-1.2757 0.6581,-1.7791 0.4493,-0.5035 1.0866,-0.8917 1.912,-1.1648 0.8358,-0.2815 1.8283,-0.4223 2.9775,-0.4223 0.8149,0 1.5723,0.0682 2.2723,0.2048 0.7108,0.128 1.3218,0.3157 1.8338,0.5631 l -1.332,2.2015 c -0.4391,-0.2219 -0.9197,-0.3882 -1.4421,-0.4992 -0.5119,-0.1109 -1.0342,-0.1664 -1.5671,-0.1664 -0.3552,0 -0.6529,0.0299 -0.8932,0.0896 -0.2403,0.0512 -0.4232,0.1238 -0.5485,0.2176 -0.115,0.0939 -0.1724,0.192 -0.1724,0.2944 0,0.1365 0.094,0.2517 0.2821,0.3456 0.188,0.0853 0.4388,0.1621 0.7522,0.2304 0.3134,0.0597 0.6529,0.128 1.0186,0.2048 0.3761,0.0682 0.747,0.1578 1.1127,0.2687 0.3761,0.1024 0.7208,0.2432 1.0343,0.4224 0.3134,0.1707 0.5644,0.3925 0.7524,0.6656 0.188,0.2645 0.282,0.593 0.282,0.9855 0,0.6656 -0.225,1.2501 -0.674,1.7535 -0.4492,0.4949 -1.0918,0.8832 -1.9276,1.1648 -0.8253,0.2815 -1.8074,0.4223 -2.9461,0.4223 z"
       fill="#292929"
       id="path13"
       style="fill:#fafafa;fill-opacity:1" />
    <path
       d="m 105.498,30.7007 c -0.648,0 -1.269,-0.0384 -1.865,-0.1152 -0.595,-0.0768 -1.139,-0.1834 -1.63,-0.3199 -0.48,-0.1451 -0.898,-0.303 -1.253,-0.4736 l 1.426,-2.2271 c 0.407,0.1877 0.815,0.3456 1.222,0.4736 0.418,0.1194 0.831,0.209 1.238,0.2688 0.418,0.0597 0.831,0.0896 1.238,0.0896 0.324,0 0.591,-0.0214 0.799,-0.064 0.22,-0.0427 0.382,-0.1024 0.486,-0.1792 0.115,-0.0854 0.173,-0.1792 0.173,-0.2816 0,-0.1365 -0.094,-0.2475 -0.282,-0.3328 -0.188,-0.0853 -0.439,-0.1621 -0.753,-0.2304 -0.303,-0.0682 -0.642,-0.1365 -1.018,-0.2048 -0.366,-0.0768 -0.737,-0.1706 -1.113,-0.2815 -0.376,-0.1195 -0.721,-0.2688 -1.034,-0.448 -0.303,-0.1792 -0.549,-0.4053 -0.737,-0.6784 -0.188,-0.273 -0.282,-0.6058 -0.282,-0.9983 0,-0.6827 0.22,-1.2757 0.658,-1.7791 0.45,-0.5035 1.087,-0.8917 1.912,-1.1648 0.836,-0.2815 1.829,-0.4223 2.978,-0.4223 0.815,0 1.572,0.0682 2.272,0.2048 0.711,0.128 1.322,0.3157 1.834,0.5631 l -1.332,2.2015 c -0.439,-0.2219 -0.92,-0.3882 -1.442,-0.4992 -0.512,-0.1109 -1.034,-0.1664 -1.567,-0.1664 -0.356,0 -0.653,0.0299 -0.894,0.0896 -0.24,0.0512 -0.423,0.1238 -0.548,0.2176 -0.115,0.0939 -0.172,0.192 -0.172,0.2944 0,0.1365 0.094,0.2517 0.282,0.3456 0.188,0.0853 0.438,0.1621 0.752,0.2304 0.313,0.0597 0.653,0.128 1.019,0.2048 0.376,0.0682 0.746,0.1578 1.112,0.2687 0.376,0.1024 0.721,0.2432 1.034,0.4224 0.314,0.1707 0.565,0.3925 0.753,0.6656 0.188,0.2645 0.282,0.593 0.282,0.9855 0,0.6656 -0.225,1.2501 -0.674,1.7535 -0.449,0.4949 -1.092,0.8832 -1.928,1.1648 -0.825,0.2815 -1.807,0.4223 -2.946,0.4223 z"
       fill="#292929"
       id="path14"
       style="fill:#fafafa;fill-opacity:1" />
    <path
       d="m 48.1101,43.5 c -1.1283,0 -2.1156,-0.1664 -2.9619,-0.4992 -0.8462,-0.3413 -1.5044,-0.8106 -1.9746,-1.4079 -0.4596,-0.6058 -0.6895,-1.3055 -0.6895,-2.0991 0,-0.785 0.1672,-1.506 0.5015,-2.163 0.3448,-0.6571 0.8306,-1.2245 1.4574,-1.7023 0.6269,-0.4779 1.3687,-0.8448 2.2254,-1.1008 0.8671,-0.2645 1.823,-0.3967 2.8678,-0.3967 1.1492,0 2.1365,0.1493 2.9619,0.4479 0.8358,0.2901 1.5096,0.7253 2.0216,1.3055 l -2.6485,1.6768 c -0.3552,-0.3755 -0.7313,-0.6315 -1.1283,-0.768 -0.397,-0.1451 -0.8567,-0.2176 -1.3791,-0.2176 -0.4806,0 -0.9141,0.0683 -1.3007,0.2048 -0.3866,0.128 -0.7209,0.3157 -1.003,0.5632 -0.2716,0.2389 -0.4805,0.5247 -0.6268,0.8575 -0.1463,0.3328 -0.2194,0.6997 -0.2194,1.1008 0,0.3498 0.094,0.657 0.2821,0.9215 0.1985,0.2645 0.4753,0.4693 0.8306,0.6144 0.3656,0.145 0.7992,0.2176 1.3007,0.2176 0.4179,0 0.8358,-0.0555 1.2537,-0.1664 0.4179,-0.1195 0.8462,-0.32 1.285,-0.6016 l 1.3947,2.1503 C 51.9861,42.779 51.3175,43.0435 50.5548,43.2312 49.7922,43.4104 48.9773,43.5 48.1101,43.5 Z m 1.3477,-1.5231 0.8306,-3.4046 h 3.2126 l -0.9403,3.8654 z"
       fill="#292929"
       id="path15"
       style="fill:#fafafa;fill-opacity:1" />
    <path
       d="m 56.745,43.2952 0.9559,-3.9294 0.4075,1.8047 -3.3066,-6.8348 h 3.714 l 2.2567,4.6974 h -2.335 l 4.623,-4.6974 h 3.7141 l -6.6289,6.8348 1.2537,-1.8047 -0.956,3.9294 z"
       fill="#292929"
       id="path16"
       style="fill:#fafafa;fill-opacity:1" />
    <path
       d="m 65.0508,43.2952 2.194,-8.9595 h 3.0088 l 2.9306,5.8493 h -1.5985 l 5.6416,-5.8493 h 3.15 l -2.1627,8.9595 h -3.3693 l 1.144,-4.8125 0.5328,-0.0257 -3.7924,4.0318 h -1.6298 l -2.1313,-4.0446 0.6268,0.0384 -1.1753,4.8126 z"
       fill="#292929"
       id="path17"
       style="fill:#fafafa;fill-opacity:1" />
    <path
       d="M 23.9427,0.500648 C 23.7748,0.484885 23.4672,0.760093 23.2022,0.967738 H 23.201 C 22.9456,1.24214 22.8285,1.38761 22.3733,1.84922 21.9179,2.31078 21.4795,2.81701 21.3984,2.9738 c -0.2581,0.49782 -0.0447,2.59506 0.5012,4.91995 1.1711,4.98895 2.2035,8.01435 3.3207,9.73095 0.2107,0.3238 0.4239,0.7171 0.4737,0.8743 0.3573,1.1269 0.7888,2.6703 0.756,2.7031 -0.0216,0.0216 -0.3015,-0.0876 -0.622,-0.2431 -0.5279,-0.256 -1.4842,-0.5748 -2.1665,-0.7223 -0.1437,-0.031 -0.5119,-0.2996 -0.8182,-0.5963 -0.7375,-0.7147 -1.9698,-1.6659 -2.6269,-2.0288 -0.2912,-0.1609 -0.9194,-0.4344 -1.396,-0.6084 -1.5048,-0.5497 -2.7763,-1.2524 -4.4883,-2.478 L 13.5964,13.9994 13.5558,13.1467 C 13.5219,12.44 13.4659,12.1968 13.2292,11.7334 12.9037,11.0963 12.6574,10.933 12.0162,10.931 11.354,10.9288 11.1517,10.8206 10.0747,9.88906 9.53714,9.4241 9.02227,8.98611 8.92993,8.91537 8.77706,8.79825 8.70912,8.89618 8.17031,10.0172 c -0.79578,1.6557 -0.81003,1.8351 -0.2213,2.8851 0.36603,0.6529 0.59672,0.9349 1.09455,1.3354 2.10074,1.6901 3.07414,2.5307 4.14494,3.5775 2.4842,2.4285 4.8976,4.1535 7.0483,5.0396 1.1409,0.4701 2.1935,1.0671 2.7717,1.5714 l 0.433,0.3784 -0.3063,0.2455 c -0.1686,0.1351 -0.5235,0.5434 -0.7883,0.9079 l -0.4809,0.6634 -1.2824,0.2934 c -3.3579,0.7708 -4.8687,0.9233 -8.4538,0.8517 C 9.22674,27.7084 7.51295,27.5267 7.18459,27.2429 7.07694,27.15 6.90079,26.9864 6.79221,26.879 6.36033,26.4511 5.9451,26.1579 5.76944,26.1579 c -0.10179,0 -0.35649,0.1556 -0.56582,0.345 L 4.82323,26.8466 3.47626,26.4058 C 2.73563,26.1636 2.01332,25.9652 1.87092,25.9652 1.5052,25.9652 0,27.5069 0,27.8814 c 0,0.1522 0.186569,0.5215 0.456948,0.9031 0.251504,0.3548 0.571482,0.8143 0.711762,1.0215 0.24003,0.3543 0.29213,0.3806 0.86729,0.4408 1.65482,0.1732 2.73458,0.2425 3.7849,0.2454 1.07004,0.0037 1.23781,0.0304 2.36377,0.3857 2.43343,0.7682 4.17443,1.0718 6.51113,1.1342 l 1.7466,0.0466 0.0344,0.6888 c 0.0266,0.5246 0.1029,0.8231 0.3194,1.2516 0.3624,0.7172 0.5917,0.8923 1.2775,0.9748 2.5347,0.3046 4.7425,1.3024 6.2923,2.8432 0.4554,0.4528 1.0891,1.2152 1.4079,1.6936 0.3189,0.4782 0.6389,0.9158 0.7118,0.9736 0.1563,0.1239 2.1441,0.6148 2.4881,0.6145 0.148,-2e-4 0.3893,-0.1501 0.6413,-0.3977 l 0.4031,-0.3964 C 30.3483,41.536651 30.668982,42.264624 31,43.5 h 8.9865 C 39.9918,37.0563 39.9947,33.4437 40,27 40,24.902317 39.09398,25.052808 38.965482,23.687513 38.867282,22.646313 39.1707,22.1259 39.3752,21.7241 c 0.1701,-0.3338 0.1925,-0.5658 0.1914,-1.9953 -0.0012,-1.7727 -0.09,-2.2893 -0.536,-3.1091 -0.3306,-0.6081 -0.7751,-1.0129 -1.4797,-1.3437 -0.4517,-0.2122 -0.6675,-0.2498 -1.4008,-0.2491 -0.7507,6e-4 -0.939,0.0368 -1.4114,0.2683 -0.6899,0.3381 -1.2577,0.9039 -1.5695,1.564 -0.4905,1.038 -0.5717,3.8846 -0.1424,4.9752 0.2019,0.5128 0.547173,0.593751 0.383973,2.168451 -0.0223,0.2153 -0.570673,0.197949 -0.739173,-0.02265 -0.0602,-0.0786 -0.1397,-0.3907 -0.1758,-0.6934 -0.219,-1.8379 -1.078,-3.6119 -2.4475,-5.0552 C 29.3759,17.523 29.3721,17.5152 29.1753,16.6101 28.7606,14.7036 28.0636,13.0507 26.9611,11.3596 26.0222,9.91976 25.6642,8.97025 25.2121,6.72111 25.0975,6.15119 25.103,6.10539 25.3629,5.52583 25.5237,5.1673 25.6529,4.6815 25.6812,4.32939 25.7253,3.77824 25.7119,3.72703 25.4873,3.57966 25.1079,3.33072 24.8774,2.85744 24.6524,1.86822 24.5378,1.3646 24.4222,0.878323 24.3951,0.786726 24.3678,0.693487 24.1685,0.567588 23.9427,0.500648 Z M 26.078,31.939 c 0.1749,-0.0071 0.2834,0.1002 0.5814,0.3114 0.2956,0.2098 0.6676,0.4707 0.8265,0.581 0.4616,0.3201 1.2712,1.3196 1.6437,2.0288 0.1889,0.3595 0.3293,0.6881 0.3122,0.7293 -0.0165,0.0412 -0.486,-0.2179 -1.0419,-0.5749 -0.556,-0.357 -1.5085,-0.9631 -2.1174,-1.3473 -0.6089,-0.3843 -1.2307,-0.8001 -1.3804,-0.9234 l -0.2716,-0.2241 0.4642,-0.2035 c 0.5662,-0.2478 0.8083,-0.3698 0.9833,-0.3773 z m 10.6011,1.527 0.4126,0.2421 c 0.4247,0.2491 1.2144,0.4804 2.0182,0.5915 0.5193,0.0719 0.5643,0.1875 0.3086,0.8 -0.2857,0.6845 -0.9272,1.1808 -1.7585,1.3594 -0.6289,0.135 -0.6201,0.1352 -0.8147,-0.0118 -0.1831,-0.1378 -0.2129,-0.4455 -0.1853,-1.9367 z m -0.9618,0.0266 v 1.3365 c 0,0.7356 -0.0265,1.4061 -0.0586,1.4899 -0.0754,0.1972 -0.892,0.1963 -1.432,-0.0012 -0.6847,-0.2508 -1.3899,-1.1321 -1.3959,-1.745 -0.0019,-0.172 0.0664,-0.2222 0.3589,-0.2671 0.9054,-0.1387 1.3772,-0.2684 1.9306,-0.5304 z m -2.5421,3.3726 c 0.022,-0.0224 0.2445,0.0614 0.4954,0.1868 0.3332,0.1666 0.6702,0.2389 1.2512,0.2694 l 0.7955,0.042 v 0.7593 0.7594 h -0.3685 c -0.2115,0 -0.5874,-0.1135 -0.8851,-0.266 -0.2849,-0.1458 -0.6432,-0.4221 -0.7955,-0.6143 -0.2663,-0.336 -0.5764,-1.0519 -0.493,-1.1366 z m 5.9023,0.0088 c 0.1686,-0.0232 0.1384,0.2146 -0.098,0.6862 -0.394,0.7861 -0.9652,1.1903 -1.8255,1.2922 l -0.4748,0.0562 v -0.7843 -0.7846 h 0.591 c 0.6218,0 1.255,-0.1423 1.5729,-0.3545 0.1003,-0.0667 0.1782,-0.1035 0.2344,-0.1112 z m -5.0218,2.5975 0.4605,0.139 c 0.2535,0.0765 0.6074,0.1389 0.786,0.1389 0.1785,0 0.3455,0.0566 0.372,0.1258 0.0266,0.0692 0.0365,0.6662 0.0216,1.3258 l -0.0276,1.1989 -0.4928,-0.4587 c -0.5434,-0.5064 -0.9609,-1.3063 -1.06,-2.03 z m 4.1413,0.0099 c 0.1306,-0.0353 0.1326,0.0725 0.0837,0.4288 -0.119,0.87 -0.82,2.0216 -1.4354,2.3582 -0.1609,0.088 -0.1701,0.0159 -0.1446,-1.1881 l 0.0273,-1.2815 0.5527,-0.0695 c 0.3043,-0.0379 0.638,-0.1138 0.7405,-0.1689 0.0747,-0.04 0.1325,-0.0673 0.1758,-0.079 z"
       fill="#ff7f2a"
       id="path18"
       sodipodi:nodetypes="ccccccccsccccccccccscccccccccccccccscccssccsccccccccccccccccccccccccccccccccccscccccccccccccccccccccccsccccccccccccscccccccccsccccsccccccscsccccs"
       style="fill:#fafafa;fill-opacity:1" />
  </g>
  <defs
     id="defs18">
    <clipPath
       id="clip0_59_324">
      <rect
         width="122"
         height="43"
         fill="#ffffff"
         transform="translate(0,0.5)"
         id="rect18"
         x="0"
         y="0" />
    </clipPath>
  </defs>
</svg>
