<?xml version="1.0" encoding="UTF-8" standalone="no"?>
<svg
   width="107"
   height="26"
   viewBox="0 0 107 26"
   fill="none"
   version="1.1"
   id="svg26"
   sodipodi:docname="logo_color.svg"
   inkscape:version="1.3 (0e150ed6c4, 2023-07-21)"
   xmlns:inkscape="http://www.inkscape.org/namespaces/inkscape"
   xmlns:sodipodi="http://sodipodi.sourceforge.net/DTD/sodipodi-0.dtd"
   xmlns="http://www.w3.org/2000/svg"
   xmlns:svg="http://www.w3.org/2000/svg">
  <sodipodi:namedview
     id="namedview26"
     pagecolor="#505050"
     bordercolor="#eeeeee"
     borderopacity="1"
     inkscape:showpageshadow="0"
     inkscape:pageopacity="0"
     inkscape:pagecheckerboard="0"
     inkscape:deskcolor="#505050"
     inkscape:zoom="25.841121"
     inkscape:cx="53.5"
     inkscape:cy="12.983183"
     inkscape:window-width="3440"
     inkscape:window-height="1369"
     inkscape:window-x="-8"
     inkscape:window-y="-8"
     inkscape:window-maximized="1"
     inkscape:current-layer="svg26" />
  <g
     clip-path="url(#clip0_2016_488)"
     id="g26">
    <path
       d="M47.4961 0.537109H55.8571L53.2036 3.19069H44.8426L47.4961 0.537109Z"
       fill="#959595"
       id="path1" />
    <path
       d="M55.8571 0.537109V22.8465L53.2036 25.5V3.19069L55.8571 0.537109Z"
       fill="#959595"
       id="path2" />
    <path
       d="M55.8571 22.8465H47.4961L44.8426 25.5H53.2036L55.8571 22.8465Z"
       fill="#959595"
       id="path3" />
    <path
       d="M47.4961 22.8465V0.537109L44.8426 3.19069V25.5L47.4961 22.8465Z"
       fill="#959595"
       id="path4" />
    <path
       d="M36.0946 22.8465H27.7332L25.0797 25.5H33.4411L36.0946 22.8465Z"
       fill="#959595"
       id="path5" />
    <path
       d="M27.7332 22.8465V0.537109L25.0797 3.19069V25.5L27.7332 22.8465Z"
       fill="#959595"
       id="path6" />
    <path
       d="M27.7332 0.537109H36.0946L33.4411 3.19069H25.0797L27.7332 0.537109Z"
       fill="#959595"
       id="path7" />
    <path
       d="M36.0946 0.537109V22.8465L33.4411 25.5V3.19069L36.0946 0.537109Z"
       fill="#959595"
       id="path8" />
    <path
       d="M48.0872 17.1479H35.5032L32.8496 19.8015H45.4336L48.0872 17.1479Z"
       fill="#959595"
       id="path9" />
    <path
       d="M35.5032 17.148V10.4201L32.8496 13.0736V19.8015L35.5032 17.148Z"
       fill="#959595"
       id="path10" />
    <path
       d="M35.5032 10.4201H48.0872L45.4336 13.0736H32.8496L35.5032 10.4201Z"
       fill="#959595"
       id="path11" />
    <path
       d="M48.0872 10.4201V17.148L45.4336 19.8015V13.0736L48.0872 10.4201Z"
       fill="#959595"
       id="path12" />
    <path
       d="M47.4961 0.537109H55.8573V22.8464H47.4961V0.537109ZM36.0945 22.8464H27.7334V0.537109H36.0945V22.8464ZM48.0873 17.148H35.5033V10.4201H48.0873V17.148Z"
       fill="white"
       id="path13" />
    <path
       d="M68.291 10.3214H81.9306L79.2771 12.975H65.6375L68.291 10.3214Z"
       fill="#959595"
       id="path14" />
    <path
       d="M81.9306 10.3214V16.6988L79.2771 19.3523V12.975L81.9306 10.3214Z"
       fill="#959595"
       id="path15" />
    <path
       d="M81.9306 16.6988H68.291L65.6375 19.3523H79.2771L81.9306 16.6988Z"
       fill="#959595"
       id="path16" />
    <path
       d="M68.291 16.6988V10.3214L65.6375 12.975V19.3523L68.291 16.6988Z"
       fill="#959595"
       id="path17" />
    <path
       d="M68.8824 22.8465H60.521L57.8675 25.5H66.2289L68.8824 22.8465Z"
       fill="#959595"
       id="path18" />
    <path
       d="M60.521 22.8465V0.537109L57.8675 3.19069V25.5L60.521 22.8465Z"
       fill="#959595"
       id="path19" />
    <path
       d="M60.521 0.537109H83.7045L81.0506 3.19069H57.8675L60.521 0.537109Z"
       fill="#959595"
       id="path20" />
    <path
       d="M83.7045 0.537109V6.91439L81.0506 9.56786V3.19069L83.7045 0.537109Z"
       fill="#959595"
       id="path21" />
    <path
       d="M83.7045 6.9144H68.8824L66.2289 9.56787H81.0506L83.7045 6.9144Z"
       fill="#959595"
       id="path22" />
    <path
       d="M68.8824 6.9144V22.8465L66.2289 25.5V9.56787L68.8824 6.9144Z"
       fill="#959595"
       id="path23" />
    <path
       d="M68.2911 10.3214H81.9308V16.6986H68.2911V10.3214ZM68.8823 22.8465H60.5211V0.53714H83.7044V6.91441H68.8823V22.8465Z"
       fill="white"
       id="path24" />
    <path
       d="M13.896 0.573276C13.7986 0.564214 13.62 0.723676 13.4662 0.844047H13.4656C13.3173 1.00312 13.2494 1.08745 12.9851 1.35504C12.7209 1.62261 12.4664 1.91607 12.4193 2.00696C12.2695 2.29555 12.3934 3.51132 12.7102 4.85906C13.39 7.75115 13.9892 9.50499 14.6375 10.5001C14.7598 10.6878 14.8835 10.9158 14.9124 11.0069C15.1198 11.6602 15.3703 12.5549 15.3512 12.5739C15.3386 12.5865 15.1762 12.5231 14.9902 12.433C14.6838 12.2846 14.1288 12.0998 13.7329 12.0143C13.6494 11.9963 13.4357 11.8406 13.258 11.6686C12.8299 11.2543 12.1148 10.7029 11.7333 10.4925C11.5643 10.3992 11.1997 10.2407 10.9231 10.1398C10.0497 9.82116 9.31181 9.4138 8.31817 8.70329L7.89119 8.3985L7.86758 7.90418C7.84797 7.49453 7.81544 7.35356 7.67804 7.08493C7.48915 6.71558 7.3462 6.62093 6.97404 6.61976C6.58969 6.61838 6.47231 6.55576 5.84723 6.01574C5.53522 5.7462 5.2364 5.4923 5.1828 5.45129C5.09404 5.38339 5.05464 5.44016 4.74193 6.09003C4.28007 7.04982 4.27181 7.15382 4.61349 7.76254C4.82593 8.141 4.95982 8.30448 5.24875 8.53666C6.46799 9.51641 7.03297 10.0037 7.65444 10.6105C9.09622 12.0183 10.497 13.0183 11.7451 13.532C12.4073 13.8045 13.0182 14.1506 13.3538 14.4429L13.6051 14.6623L13.4274 14.8046C13.3294 14.8829 13.1236 15.1196 12.9698 15.3309L12.6907 15.7155L11.9465 15.8856C9.99752 16.3324 9.12072 16.4208 7.04 16.3793C5.35507 16.3456 4.36042 16.2403 4.16984 16.0758C4.10735 16.0219 4.00513 15.9271 3.94212 15.8648C3.69145 15.6168 3.45046 15.4468 3.34851 15.4468C3.28947 15.4468 3.1416 15.537 3.02012 15.6468L2.79934 15.846L2.01758 15.5905C1.58772 15.4501 1.16851 15.3351 1.08585 15.3351C0.873594 15.3351 0 16.2288 0 16.4459C0 16.5341 0.108288 16.7482 0.265215 16.9694C0.411184 17.1751 0.596886 17.4415 0.678311 17.5616C0.81762 17.767 0.847855 17.7822 1.18167 17.8171C2.14211 17.9175 2.76878 17.9577 3.37837 17.9594C3.99941 17.9615 4.09677 17.9769 4.75026 18.183C6.16262 18.6283 7.17304 18.8043 8.52923 18.8405L9.54288 18.8675L9.56301 19.2668C9.57838 19.5709 9.62271 19.7439 9.74838 19.9923C9.95876 20.4081 10.0918 20.5096 10.4899 20.5574C11.9609 20.734 13.2424 21.3124 14.1418 22.2056C14.4061 22.4681 14.7739 22.9101 14.959 23.1874C15.144 23.4646 15.3297 23.7183 15.372 23.7518C15.4627 23.8236 16.6164 24.1082 16.8162 24.108C16.902 24.1079 17.042 24.021 17.1883 23.8775L17.4223 23.6477L17.4632 24.0316C17.4857 24.2427 17.5658 24.6285 17.641 24.8897C17.6989 25.0913 17.7327 25.2501 17.7576 25.5H23.2077V14.2541C23.1165 14.2857 23.0138 14.2989 22.8855 14.2735C22.8377 14.2735 22.8017 14.1478 22.7779 13.8965C22.7209 13.2929 22.7341 13.1095 22.8529 12.8766C22.9516 12.6831 22.9646 12.5486 22.964 11.7199C22.9633 10.6923 22.9116 10.3928 22.653 9.91758C22.4611 9.56502 22.2031 9.33041 21.7941 9.1386C21.5319 9.0156 21.4067 8.99379 20.9811 8.99419C20.5454 8.99453 20.4361 9.01545 20.1619 9.14971C19.7616 9.34573 19.432 9.67372 19.251 10.0564C18.9664 10.6581 18.9192 12.3083 19.1684 12.9405C19.2856 13.2378 19.2861 13.2773 19.1913 14.1902C19.1783 14.315 19.0599 14.3123 18.9622 14.1846C18.9271 14.139 18.881 13.9581 18.8601 13.7826C18.733 12.7172 18.2344 11.6888 17.4396 10.8521C17.0493 10.4412 17.047 10.4367 16.9328 9.91203C16.6921 8.80683 16.2876 7.84861 15.6477 6.86831C15.1028 6.03363 14.8951 5.4832 14.6326 4.17937C14.5661 3.84899 14.5693 3.82244 14.7201 3.48647C14.8134 3.27863 14.8884 2.99701 14.9048 2.79289C14.9305 2.47339 14.9227 2.4437 14.7923 2.35827C14.5721 2.21396 14.4383 1.9396 14.3077 1.36615C14.2412 1.0742 14.1741 0.792307 14.1584 0.739209C14.1425 0.685156 14.027 0.612081 13.896 0.573276ZM15.1353 18.7981C15.2368 18.794 15.2999 18.8562 15.4727 18.9786C15.6444 19.1002 15.8603 19.2515 15.9525 19.3154C16.2203 19.501 16.6902 20.0804 16.9064 20.4915C17.016 20.6999 17.0975 20.8904 17.0876 20.9143C17.0777 20.9382 16.8056 20.788 16.4829 20.581C16.1602 20.3741 15.6074 20.0227 15.254 19.8C14.9006 19.5772 14.5397 19.3362 14.4528 19.2647L14.2952 19.1348L14.5646 19.0168C14.8932 18.8732 15.0338 18.8024 15.1353 18.7981ZM21.288 19.6833L21.5275 19.8236C21.774 19.968 22.2323 20.1021 22.6988 20.1665C23.0002 20.2082 23.0263 20.2752 22.8779 20.6303C22.7121 21.0271 22.3399 21.3148 21.8573 21.4183C21.4923 21.4966 21.4974 21.4967 21.3845 21.4114C21.2782 21.3315 21.2609 21.1531 21.2769 20.2887L21.288 19.6833ZM20.7298 19.6986V20.4734C20.7298 20.8998 20.7144 21.2885 20.6958 21.3371C20.6519 21.4514 20.1781 21.4509 19.8647 21.3364C19.4674 21.191 19.0581 20.6801 19.0545 20.3248C19.0531 20.2251 19.0931 20.196 19.2628 20.17C19.7884 20.0896 20.0621 20.0144 20.3834 19.8625L20.7298 19.6986ZM19.2545 21.6537C19.2672 21.6407 19.3963 21.6893 19.5419 21.762C19.7354 21.8586 19.9309 21.9005 20.2681 21.9182L20.7298 21.9425V22.3827V22.8229H20.516C20.3932 22.8229 20.1751 22.7571 20.0022 22.6687C19.8369 22.5842 19.6289 22.424 19.5405 22.3126C19.3861 22.1178 19.2061 21.7028 19.2545 21.6537ZM22.68 21.6586C22.7779 21.6452 22.7603 21.783 22.6231 22.0564C22.3944 22.5121 22.063 22.7464 21.5636 22.8055L21.288 22.8381V22.3834V21.9286H21.631C21.992 21.9286 22.3595 21.8461 22.544 21.7231C22.6021 21.6844 22.6474 21.6631 22.68 21.6586ZM19.7654 23.1644L20.0327 23.245C20.1798 23.2893 20.3853 23.3255 20.4889 23.3255C20.5925 23.3255 20.6894 23.3583 20.7048 23.3984C20.7202 23.4385 20.7259 23.7846 20.7173 24.167L20.7013 24.862L20.4153 24.5961C20.0999 24.3025 19.8577 23.8388 19.8002 23.4193L19.7654 23.1644ZM22.169 23.17C22.2447 23.1495 22.2459 23.212 22.2176 23.4186C22.1485 23.9229 21.7417 24.5905 21.3845 24.7856C21.2911 24.8366 21.2858 24.7948 21.3005 24.0969L21.3165 23.354L21.6372 23.3137C21.8139 23.2917 22.0075 23.2477 22.067 23.2158C22.1103 23.1926 22.1438 23.1768 22.169 23.17Z"
       fill="#FF7F2A"
       id="path25" />
    <path
       d="M92.9668 0.500364C92.8358 0.53917 92.7203 0.612245 92.7044 0.666297C92.6887 0.719395 92.6216 1.00198 92.5551 1.29392C92.4245 1.86738 92.2907 2.14105 92.0705 2.28535C91.9401 2.37079 91.9324 2.40117 91.958 2.72066C91.9744 2.92479 92.0487 3.20571 92.142 3.41356C92.2928 3.74953 92.2967 3.77677 92.2302 4.10715C91.9678 5.41098 91.76 5.96141 91.2151 6.79609C90.5752 7.77639 90.1707 8.73392 89.93 9.83912C89.8158 10.3638 89.8129 10.3683 89.4225 10.7792C88.6277 11.6159 88.1298 12.6443 88.0027 13.7097C87.9818 13.8852 87.9357 14.066 87.9007 14.1117C87.8029 14.2394 87.6845 14.2421 87.6715 14.1173C87.5767 13.2044 87.5773 13.1649 87.6945 12.8676C87.9436 12.2354 87.8958 10.5852 87.6111 9.98352C87.4301 9.60081 87.1013 9.27281 86.7009 9.07679C86.4267 8.94254 86.3174 8.92162 85.8817 8.92128C85.4561 8.92093 85.3309 8.9434 85.0687 9.06638C84.6598 9.25819 84.4017 9.49211 84.2099 9.84467C83.9512 10.3199 83.8995 10.6194 83.8988 11.647C83.8982 12.4757 83.9112 12.6109 84.0099 12.8044C84.1287 13.0372 84.1419 13.2207 84.0849 13.8243C84.0611 14.0756 84.0251 14.2013 83.9773 14.2013C83.849 14.2267 83.7463 14.2135 83.6551 14.1818V25.4278H89.1052C89.1302 25.1778 89.1639 25.0191 89.2219 24.8175C89.297 24.5563 89.3771 24.1697 89.3996 23.9587L89.4399 23.5748L89.6745 23.8053C89.8208 23.9488 89.9608 24.0349 90.0467 24.0351C90.2464 24.0353 91.4001 23.7514 91.4908 23.6796C91.5331 23.6461 91.7188 23.3917 91.9039 23.1144C92.0889 22.8372 92.4567 22.3959 92.721 22.1334C93.6205 21.2402 94.9019 20.6618 96.373 20.4852C96.771 20.4374 96.9041 20.3359 97.1144 19.9201C97.2401 19.6717 97.2844 19.4987 97.2998 19.1945L97.3199 18.7953L98.3336 18.7683C99.6898 18.732 100.7 18.556 102.113 18.1108C102.766 17.9047 102.863 17.8893 103.484 17.8872C104.094 17.8855 104.721 17.8446 105.681 17.7442C106.015 17.7093 106.045 17.6941 106.184 17.4887C106.265 17.3686 106.452 17.1022 106.598 16.8965C106.755 16.6753 106.863 16.4612 106.863 16.373C106.863 16.1559 105.989 15.2628 105.777 15.2628C105.694 15.2628 105.275 15.3778 104.845 15.5183L104.063 15.7738L103.843 15.5746C103.721 15.4648 103.573 15.3746 103.514 15.3746C103.412 15.3746 103.171 15.5439 102.921 15.7919C102.858 15.8542 102.755 15.9497 102.693 16.0036C102.502 16.168 101.508 16.2727 99.8228 16.3063C97.7421 16.3479 96.8653 16.2601 94.9163 15.8134L94.1721 15.6426L93.893 15.2587C93.7393 15.0473 93.5334 14.81 93.4355 14.7317L93.2577 14.5894L93.509 14.3707C93.8446 14.0784 94.4555 13.7323 95.1177 13.4598C96.3659 12.9461 97.7666 11.9454 99.2084 10.5376C99.8299 9.93076 100.395 9.44419 101.614 8.46444C101.903 8.23226 102.037 8.06878 102.249 7.69033C102.591 7.08161 102.583 6.9776 102.121 6.0178C101.808 5.36795 101.769 5.31047 101.68 5.37837C101.626 5.41939 101.328 5.67399 101.016 5.94352C100.391 6.48354 100.273 6.54616 99.8888 6.54754C99.5166 6.54857 99.373 6.64336 99.1841 7.01271C99.0467 7.28134 99.0149 7.42161 98.9952 7.83126L98.9716 8.32629L98.5447 8.63107C97.551 9.34158 96.8131 9.74824 95.9397 10.0668C95.6631 10.1677 95.2985 10.327 95.1295 10.4202C94.7481 10.6307 94.0329 11.1821 93.6049 11.5963C93.4271 11.7684 93.2134 11.924 93.13 11.9421C92.734 12.0276 92.179 12.2124 91.8726 12.3607C91.6866 12.4508 91.5235 12.5143 91.5109 12.5017C91.4919 12.4827 91.743 11.588 91.9504 10.9347C91.9793 10.8435 92.103 10.6149 92.2253 10.4272C92.8737 9.43207 93.4729 7.67824 94.1526 4.78615C94.4694 3.43841 94.5933 2.22263 94.4435 1.93405C94.3964 1.84316 94.142 1.55039 93.8777 1.28282C93.6135 1.01523 93.5455 0.930897 93.3973 0.771824L93.3966 0.771135C93.2428 0.650764 93.0642 0.491302 92.9668 0.500364ZM91.7275 18.7252C91.8291 18.7295 91.9696 18.8003 92.2982 18.9439L92.5676 19.0619L92.41 19.1925C92.3231 19.264 91.9622 19.505 91.6088 19.7277C91.2554 19.9505 90.7026 20.3018 90.3799 20.5088C90.0572 20.7158 89.7851 20.8653 89.7752 20.8414C89.7653 20.8175 89.8468 20.6277 89.9564 20.4192C90.1726 20.0082 90.6425 19.4287 90.9104 19.2431C91.0025 19.1793 91.2184 19.0273 91.3901 18.9057C91.563 18.7833 91.626 18.7211 91.7275 18.7252ZM85.5748 19.6104L85.5859 20.2158C85.6019 21.0802 85.5846 21.2592 85.4783 21.3392C85.3654 21.4245 85.3705 21.4244 85.0055 21.3461C84.523 21.2426 84.1507 20.9549 83.9849 20.5581C83.8365 20.203 83.8619 20.136 84.1633 20.0943C84.6298 20.0298 85.0881 19.8951 85.3346 19.7507L85.5748 19.6104ZM86.133 19.6257L86.4795 19.7895C86.8007 19.9415 87.0744 20.0167 87.6 20.0971C87.7697 20.1231 87.8097 20.1529 87.8083 20.2526C87.8048 20.6079 87.3955 21.1187 86.9981 21.2642C86.6847 21.3787 86.2109 21.3792 86.167 21.2649C86.1484 21.2163 86.133 20.8276 86.133 20.4012V19.6257ZM87.6084 21.5808V21.5815C87.6568 21.6306 87.4767 22.0456 87.3223 22.2403C87.2339 22.3518 87.0259 22.512 86.8606 22.5965C86.6878 22.6849 86.4696 22.7499 86.3469 22.7499H86.133V22.3105V21.8703L86.5947 21.846C86.9319 21.8283 87.1268 21.7864 87.3202 21.6898C87.4658 21.6171 87.5956 21.5678 87.6084 21.5808ZM84.1828 21.5856C84.2154 21.5901 84.2607 21.6114 84.3189 21.6502C84.5034 21.7732 84.8708 21.8564 85.2318 21.8564H85.5748V22.3112V22.7659L85.2992 22.7333C84.7999 22.6741 84.4684 22.4398 84.2397 21.9842C84.1025 21.7107 84.085 21.5723 84.1828 21.5856ZM87.0974 23.0922L87.0627 23.347C87.0051 23.7666 86.7629 24.2303 86.4475 24.5238L86.1608 24.7897L86.1455 24.0941C86.1369 23.7116 86.1426 23.3663 86.158 23.3262C86.1734 23.2861 86.2703 23.2533 86.3739 23.2533C86.4776 23.2533 86.683 23.217 86.8301 23.1728L87.0974 23.0922ZM84.6938 23.0971C84.719 23.1039 84.7525 23.1204 84.7958 23.1436C84.8553 23.1754 85.0489 23.2195 85.2256 23.2415L85.5464 23.2818L85.5623 24.0246C85.577 24.7225 85.5717 24.7644 85.4783 24.7134C85.1211 24.5183 84.7143 23.8507 84.6452 23.3463C84.6169 23.1398 84.6181 23.0766 84.6938 23.0971Z"
       fill="#FF7F2A"
       id="path26" />
  </g>
  <defs
     id="defs26">
    <clipPath
       id="clip0_2016_488">
      <rect
         width="106.863"
         height="25"
         fill="white"
         transform="translate(0 0.5)"
         id="rect26" />
    </clipPath>
  </defs>
</svg>
