<?xml version="1.0" encoding="UTF-8" standalone="no"?>
<!-- Created with Inkscape (http://www.inkscape.org/) -->

<svg
   width="28.273638mm"
   height="8.7661238mm"
   viewBox="0 0 28.273638 8.7661238"
   version="1.1"
   id="svg1"
   sodipodi:docname="hfLogo.svg"
   xmlns:inkscape="http://www.inkscape.org/namespaces/inkscape"
   xmlns:sodipodi="http://sodipodi.sourceforge.net/DTD/sodipodi-0.dtd"
   xmlns="http://www.w3.org/2000/svg"
   xmlns:svg="http://www.w3.org/2000/svg">
  <sodipodi:namedview
     id="namedview1"
     pagecolor="#505050"
     bordercolor="#eeeeee"
     borderopacity="1"
     inkscape:showpageshadow="0"
     inkscape:pageopacity="0"
     inkscape:pagecheckerboard="0"
     inkscape:deskcolor="#505050"
     inkscape:document-units="mm"
     inkscape:zoom="2.955623"
     inkscape:cx="293.17"
     inkscape:cy="342.22903"
     inkscape:window-width="3440"
     inkscape:window-height="1369"
     inkscape:window-x="-8"
     inkscape:window-y="-8"
     inkscape:window-maximized="1"
     inkscape:current-layer="layer1" />
  <defs
     id="defs1" />
  <g
     inkscape:label="Layer 1"
     inkscape:groupmode="layer"
     id="layer1"
     transform="translate(-88.106295,-104.77483)">
    <g
       id="g1">
      <path
         d="m 100.67293,104.78482 h 2.21218 l -0.70207,0.70209 h -2.212205 z"
         fill="#959595"
         id="path1"
         style="fill:#fafafa;fill-opacity:1;stroke-width:0.264583" />
      <path
         d="m 102.88511,104.78482 v 5.90269 l -0.70207,0.70207 v -5.90267 z"
         fill="#959595"
         id="path2"
         style="fill:#fafafa;fill-opacity:1;stroke-width:0.264583" />
      <path
         d="m 102.88511,110.68751 h -2.21218 l -0.702095,0.70207 h 2.212205 z"
         fill="#959595"
         id="path3"
         style="fill:#aeaeae;fill-opacity:1;stroke-width:0.264583" />
      <path
         d="m 100.67293,110.68751 v -5.90269 l -0.702095,0.70209 v 5.90267 z"
         fill="#959595"
         id="path4"
         style="fill:#aeaeae;fill-opacity:1;stroke-width:0.264583" />
      <path
         d="m 97.656287,110.68751 h -2.212288 l -0.702098,0.70207 h 2.212287 z"
         fill="#959595"
         id="path5"
         style="fill:#aeaeae;fill-opacity:1;stroke-width:0.264583" />
      <path
         d="m 95.443999,110.68751 v -5.90269 l -0.702098,0.70209 v 5.90267 z"
         fill="#959595"
         id="path6"
         style="fill:#aeaeae;fill-opacity:1;stroke-width:0.264583" />
      <path
         d="m 95.443999,104.78482 h 2.212288 l -0.702099,0.70209 h -2.212287 z"
         fill="#959595"
         id="path7"
         style="fill:#aeaeae;fill-opacity:1;stroke-width:0.264583" />
      <path
         d="m 97.656287,104.78482 v 5.90269 l -0.702072,0.70207 v -5.90267 z"
         fill="#959595"
         id="path8"
         style="fill:#aeaeae;fill-opacity:1;stroke-width:0.264583" />
      <path
         d="m 100.8293,109.17976 h -3.329488 l -0.702098,0.7021 h 3.329516 z"
         fill="#959595"
         id="path9"
         style="fill:#aeaeae;fill-opacity:1;stroke-width:0.264583" />
      <path
         d="m 97.499812,109.17978 v -1.78009 l -0.702098,0.70208 v 1.78009 z"
         fill="#959595"
         id="path10"
         style="fill:#fafafa;fill-opacity:1;stroke-width:0.264583" />
      <path
         d="m 97.499812,107.39969 h 3.329488 l -0.70207,0.70208 h -3.329516 z"
         fill="#959595"
         id="path11"
         style="fill:#fafafa;fill-opacity:1;stroke-width:0.264583" />
      <path
         d="m 100.8293,107.39969 v 1.78009 l -0.70207,0.70208 v -1.78009 z"
         fill="#959595"
         id="path12"
         style="fill:#aeaeae;fill-opacity:1;stroke-width:0.264583" />
      <path
         d="m 100.67293,104.78482 h 2.21224 v 5.90267 h -2.21224 z m -3.01667,5.90267 h -2.212234 v -5.90267 h 2.212234 z m 3.1731,-1.50771 h -3.329522 v -1.78009 h 3.329522 z"
         fill="white"
         id="path13"
         style="fill:#fafafa;fill-opacity:1;stroke-width:0.264583" />
      <path
         d="m 106.17492,107.37358 h 3.60881 l -0.70207,0.7021 h -3.60884 z"
         fill="#959595"
         id="path14"
         style="fill:#fafafa;fill-opacity:1;stroke-width:0.264583" />
      <path
         d="m 109.78373,107.37358 v 1.68735 l -0.7021,0.70208 v -1.68733 z"
         fill="#959595"
         id="path15"
         style="fill:#fafafa;fill-opacity:1;stroke-width:0.264583" />
      <path
         d="m 109.78373,109.06093 h -3.60881 l -0.7021,0.70208 h 3.60884 z"
         fill="#959595"
         id="path16"
         style="fill:#aeaeae;fill-opacity:1;stroke-width:0.264583" />
      <path
         d="m 106.17492,109.06093 v -1.68735 l -0.7021,0.7021 v 1.68733 z"
         fill="#959595"
         id="path17"
         style="fill:#fafafa;fill-opacity:1;stroke-width:0.264583" />
      <path
         d="m 106.33139,110.68751 h -2.21229 l -0.70207,0.70207 h 2.21229 z"
         fill="#959595"
         id="path18"
         style="fill:#aeaeae;fill-opacity:1;stroke-width:0.264583" />
      <path
         d="m 104.1191,110.68751 v -5.90269 l -0.70207,0.70209 v 5.90267 z"
         fill="#959595"
         id="path19"
         style="fill:#aeaeae;fill-opacity:1;stroke-width:0.264583" />
      <path
         d="m 104.1191,104.78482 h 6.13397 l -0.70218,0.70209 h -6.13386 z"
         fill="#959595"
         id="path20"
         style="fill:#aeaeae;fill-opacity:1;stroke-width:0.264583" />
      <path
         d="m 110.25307,104.78482 v 1.68732 l -0.70218,0.70207 v -1.6873 z"
         fill="#959595"
         id="path21"
         style="fill:#fafafa;fill-opacity:1;stroke-width:0.264583" />
      <path
         d="m 110.25307,106.47214 h -3.92168 l -0.70207,0.70207 h 3.92157 z"
         fill="#959595"
         id="path22"
         style="fill:#aeaeae;fill-opacity:1;stroke-width:0.264583" />
      <path
         d="m 106.33139,106.47214 v 4.21537 l -0.70207,0.70207 v -4.21537 z"
         fill="#959595"
         id="path23"
         style="fill:#aeaeae;fill-opacity:1;stroke-width:0.264583" />
      <path
         d="m 106.17494,107.37358 h 3.60881 v 1.6873 h -3.60881 z m 0.15643,3.31393 h -2.21224 v -5.90268 h 6.13389 v 1.68732 h -3.92165 z"
         fill="white"
         id="path24"
         style="fill:#fafafa;fill-opacity:1;stroke-width:0.264583" />
    </g>
    <path
       d="m 91.782907,104.79439 c -0.02577,-0.002 -0.07303,0.0398 -0.113718,0.0716 h -1.85e-4 c -0.03921,0.0421 -0.0572,0.0644 -0.127106,0.1352 -0.06993,0.0708 -0.137239,0.14844 -0.149701,0.17249 -0.03963,0.0763 -0.0069,0.39803 0.07697,0.75462 0.179837,0.7652 0.338376,1.22923 0.509932,1.49252 0.03236,0.0497 0.06509,0.10999 0.07273,0.13409 0.05487,0.17285 0.121126,0.40958 0.116099,0.4146 -0.0033,0.003 -0.0463,-0.0134 -0.09552,-0.0373 -0.08107,-0.0393 -0.227912,-0.0881 -0.332687,-0.11078 -0.02207,-0.005 -0.07861,-0.0459 -0.125651,-0.0915 -0.113241,-0.10962 -0.302471,-0.25551 -0.403383,-0.31118 -0.04472,-0.0247 -0.141182,-0.0666 -0.214366,-0.0933 -0.231087,-0.0843 -0.426328,-0.19209 -0.689229,-0.38007 l -0.112972,-0.0806 -0.0062,-0.13079 c -0.0052,-0.10838 -0.01379,-0.14568 -0.05015,-0.21676 -0.04998,-0.0977 -0.0878,-0.12276 -0.186267,-0.12307 -0.101693,-3.7e-4 -0.13275,-0.0169 -0.298135,-0.15982 -0.08255,-0.0713 -0.161616,-0.13849 -0.175797,-0.14934 -0.02348,-0.018 -0.03391,-0.003 -0.116647,0.169 -0.122201,0.25394 -0.124386,0.28146 -0.03398,0.44252 0.05621,0.10013 0.09163,0.14339 0.168082,0.20482 0.322587,0.25922 0.472072,0.38815 0.636502,0.5487 0.381474,0.37248 0.752076,0.63707 1.082329,0.77298 0.175207,0.0721 0.336841,0.16367 0.425635,0.24101 l 0.06649,0.058 -0.04704,0.0376 c -0.0259,0.0207 -0.08038,0.0833 -0.121047,0.13925 l -0.07385,0.10176 -0.19693,0.045 c -0.515646,0.11822 -0.747635,0.14161 -1.298159,0.13063 -0.445802,-0.009 -0.708972,-0.0368 -0.759394,-0.0803 -0.01654,-0.0143 -0.04358,-0.0393 -0.06025,-0.0558 -0.06632,-0.0656 -0.130085,-0.11059 -0.157056,-0.11059 -0.01562,0 -0.05474,0.0239 -0.08689,0.0529 l -0.05841,0.0527 -0.206841,-0.0676 c -0.113734,-0.0372 -0.22465,-0.0676 -0.246517,-0.0676 -0.05616,0 -0.2873,0.23646 -0.2873,0.2939 0,0.0233 0.02865,0.08 0.07017,0.13851 0.03862,0.0544 0.08776,0.12491 0.109298,0.15669 0.03686,0.0543 0.04486,0.0584 0.13318,0.0676 0.254117,0.0266 0.419923,0.0372 0.581211,0.0376 0.164316,5.5e-4 0.190079,0.005 0.362981,0.0592 0.373685,0.11782 0.641028,0.16438 0.99985,0.17396 l 0.268208,0.007 0.0053,0.10564 c 0.0041,0.0805 0.0158,0.12624 0.04905,0.19196 0.05564,0.11001 0.09086,0.13687 0.196162,0.14952 0.389229,0.0467 0.728266,0.19976 0.966259,0.43608 0.06993,0.0695 0.167243,0.1864 0.216191,0.25977 0.04897,0.0733 0.09811,0.14047 0.109299,0.14933 0.024,0.019 0.329248,0.0943 0.382085,0.0942 0.0227,-2e-5 0.05977,-0.023 0.09848,-0.061 l 0.06189,-0.0608 0.01085,0.10157 c 0.006,0.0559 0.02715,0.15793 0.04702,0.22704 0.01535,0.0533 0.02426,0.0954 0.03088,0.16147 h 1.442006 v -2.97547 c -0.02413,0.008 -0.0513,0.0119 -0.08525,0.005 -0.01265,0 -0.0222,-0.0333 -0.02847,-0.0998 -0.01508,-0.1597 -0.01159,-0.20822 0.01984,-0.26985 0.02611,-0.0512 0.02955,-0.0868 0.0294,-0.30604 -1.86e-4,-0.27189 -0.01386,-0.35113 -0.08231,-0.47686 -0.05077,-0.0933 -0.119036,-0.15536 -0.227224,-0.20611 -0.06937,-0.0325 -0.1025,-0.0383 -0.215107,-0.0382 -0.115279,9e-5 -0.144198,0.006 -0.216746,0.0412 -0.105939,0.0519 -0.19312,0.13865 -0.241009,0.2399 -0.07533,0.1592 -0.08779,0.59581 -0.02188,0.76308 0.03101,0.0787 0.03117,0.0891 0.0061,0.33065 -0.0034,0.033 -0.03477,0.0323 -0.06064,-0.001 -0.0093,-0.0121 -0.02146,-0.0599 -0.02699,-0.10636 -0.03363,-0.28189 -0.16555,-0.55399 -0.37584,-0.77537 -0.103294,-0.10871 -0.103876,-0.1099 -0.134091,-0.24872 -0.06369,-0.29242 -0.170709,-0.54595 -0.340016,-0.80532 -0.144172,-0.22084 -0.199152,-0.36648 -0.268579,-0.71145 -0.0176,-0.0874 -0.01675,-0.0944 0.02315,-0.18333 0.02469,-0.055 0.04453,-0.1295 0.04887,-0.18351 0.0068,-0.0845 0.0047,-0.0924 -0.02977,-0.11499 -0.05826,-0.0382 -0.09366,-0.11077 -0.128217,-0.2625 -0.0176,-0.0772 -0.03535,-0.15183 -0.0395,-0.16588 -0.0042,-0.0143 -0.03477,-0.0336 -0.06943,-0.0439 z m 0.327898,4.82198 c 0.02685,-0.001 0.04352,0.0154 0.08927,0.0478 0.0454,0.0322 0.102526,0.0722 0.12692,0.0891 0.07088,0.0491 0.19521,0.20241 0.252413,0.31118 0.029,0.0551 0.05056,0.10554 0.04794,0.11187 -0.0026,0.006 -0.07464,-0.0334 -0.159993,-0.0882 -0.08538,-0.0547 -0.231643,-0.14772 -0.325147,-0.20664 -0.0935,-0.059 -0.188992,-0.12271 -0.211984,-0.14163 l -0.0417,-0.0344 0.07128,-0.0312 c 0.08694,-0.038 0.124116,-0.0567 0.150998,-0.0579 z m 1.627902,0.23421 0.06337,0.0371 c 0.06522,0.0382 0.186478,0.0737 0.309906,0.0907 0.07975,0.011 0.08665,0.0288 0.04739,0.12271 -0.04387,0.10499 -0.142372,0.18111 -0.270034,0.2085 -0.09657,0.0207 -0.09522,0.0207 -0.125095,-0.002 -0.02813,-0.0211 -0.0327,-0.0683 -0.02847,-0.29705 z m -0.14769,0.004 v 0.205 c 0,0.11282 -0.0041,0.21566 -0.009,0.22852 -0.01161,0.0302 -0.136975,0.0301 -0.219895,-1.8e-4 -0.105146,-0.0385 -0.21344,-0.17365 -0.214366,-0.26766 -3.7e-4,-0.0264 0.01021,-0.0341 0.05511,-0.0409 0.139038,-0.0213 0.211481,-0.0412 0.296465,-0.0814 z m -0.390367,0.51729 c 0.0034,-0.003 0.03755,0.009 0.07607,0.0286 0.05117,0.0256 0.102923,0.0366 0.19214,0.0413 l 0.122159,0.006 v 0.11647 0.11647 h -0.05659 c -0.03246,0 -0.0902,-0.0174 -0.135916,-0.0408 -0.04374,-0.0224 -0.09877,-0.0647 -0.122158,-0.0942 -0.04088,-0.0515 -0.0885,-0.16134 -0.0757,-0.17433 z m 0.906357,0.001 c 0.02588,-0.004 0.02125,0.0329 -0.01505,0.10526 -0.06051,0.12057 -0.148219,0.18256 -0.280326,0.1982 l -0.07292,0.009 v -0.12031 -0.12033 h 0.09075 c 0.09549,0 0.192723,-0.0218 0.241538,-0.0544 0.0154,-0.0102 0.02738,-0.0159 0.03601,-0.0171 z m -0.771155,0.39841 0.07072,0.0213 c 0.03892,0.0117 0.09327,0.0213 0.120702,0.0213 0.02741,0 0.05305,0.009 0.05712,0.0193 0.0041,0.0106 0.0056,0.10218 0.0033,0.20336 l -0.0042,0.18388 -0.07567,-0.0704 c -0.08345,-0.0777 -0.147558,-0.20037 -0.162772,-0.31136 z m 0.635953,10e-4 c 0.02003,-0.005 0.02035,0.0111 0.01286,0.0658 -0.01828,0.13343 -0.125916,0.31007 -0.220425,0.36169 -0.02471,0.0135 -0.02611,0.002 -0.02223,-0.18222 l 0.0042,-0.19656 0.08488,-0.0107 c 0.04672,-0.006 0.09797,-0.0175 0.113717,-0.0259 0.01146,-0.006 0.02032,-0.0103 0.02699,-0.0121 z"
       fill="#FF7F2A"
       id="path25"
       style="fill:#fafafa;fill-opacity:1;stroke-width:0.264583" />
    <path
       d="m 112.70372,104.7751 c -0.0347,0.0103 -0.0652,0.0296 -0.0694,0.0439 -0.004,0.014 -0.0219,0.0888 -0.0395,0.16606 -0.0346,0.15173 -0.07,0.22414 -0.12821,0.26232 -0.0345,0.0226 -0.0366,0.0306 -0.0298,0.11517 0.004,0.054 0.024,0.12834 0.0487,0.18333 0.0399,0.0889 0.0409,0.0961 0.0233,0.18351 -0.0694,0.34498 -0.12441,0.49061 -0.26858,0.71145 -0.1693,0.25937 -0.27633,0.51272 -0.34001,0.80514 -0.0302,0.13882 -0.031,0.14001 -0.13428,0.24873 -0.21029,0.22137 -0.34203,0.49347 -0.37566,0.77536 -0.006,0.0464 -0.0177,0.0943 -0.027,0.10636 -0.0259,0.0338 -0.0572,0.0345 -0.0606,0.001 -0.0251,-0.24154 -0.025,-0.25199 0.006,-0.33065 0.0659,-0.16727 0.0533,-0.60388 -0.022,-0.76308 -0.0479,-0.10126 -0.13491,-0.18804 -0.24082,-0.2399 -0.0725,-0.0355 -0.10147,-0.0411 -0.21675,-0.0412 -0.1126,-9e-5 -0.14573,0.006 -0.2151,0.0384 -0.10822,0.0507 -0.17648,0.11264 -0.22725,0.20593 -0.0684,0.12573 -0.0821,0.20498 -0.0823,0.47686 -1.6e-4,0.21926 0.003,0.25503 0.0294,0.30623 0.0314,0.0616 0.0349,0.11015 0.0198,0.26985 -0.006,0.0665 -0.0158,0.0998 -0.0285,0.0998 -0.0339,0.007 -0.0611,0.003 -0.0853,-0.005 v 2.9755 h 1.44201 c 0.007,-0.0661 0.0155,-0.10813 0.0309,-0.16147 0.0199,-0.0691 0.0411,-0.1714 0.047,-0.22723 l 0.0107,-0.10157 0.0621,0.061 c 0.0387,0.038 0.0758,0.0607 0.0985,0.0608 0.0528,5e-5 0.35809,-0.0751 0.38209,-0.0941 0.0112,-0.009 0.0603,-0.0762 0.1093,-0.14955 0.0489,-0.0733 0.14626,-0.1901 0.21619,-0.25955 0.23796,-0.23633 0.57703,-0.38936 0.96623,-0.43609 0.10533,-0.0126 0.14052,-0.0395 0.19619,-0.14951 0.0333,-0.0657 0.045,-0.1115 0.0491,-0.19199 l 0.005,-0.10562 0.26821,-0.007 c 0.35872,-0.01 0.62621,-0.0562 0.99981,-0.17396 0.17303,-0.0545 0.1987,-0.0586 0.363,-0.0592 0.1614,-4.4e-4 0.32703,-0.0113 0.58129,-0.0378 0.0884,-0.009 0.096,-0.0133 0.13282,-0.0676 0.0217,-0.0318 0.0709,-0.10226 0.10954,-0.15669 0.0415,-0.0585 0.0701,-0.11517 0.0701,-0.13851 0,-0.0574 -0.23098,-0.29374 -0.28708,-0.29374 -0.022,0 -0.13282,0.0304 -0.24659,0.0676 l -0.2069,0.0676 -0.0585,-0.0527 c -0.032,-0.029 -0.0712,-0.0529 -0.0868,-0.0529 -0.027,0 -0.0907,0.0448 -0.15716,0.11041 -0.0167,0.0165 -0.0437,0.0417 -0.0601,0.056 -0.0505,0.0435 -0.3138,0.0712 -0.75962,0.0801 -0.55041,0.011 -0.7824,-0.0122 -1.29807,-0.13042 l -0.19691,-0.0452 -0.0738,-0.10157 c -0.0407,-0.0559 -0.0951,-0.11872 -0.12107,-0.13944 l -0.047,-0.0376 0.0665,-0.0579 c 0.0888,-0.0773 0.25043,-0.16891 0.42563,-0.24101 0.33023,-0.13592 0.70086,-0.40069 1.08234,-0.77317 0.1643,-0.16056 0.31379,-0.28929 0.63658,-0.54852 0.0765,-0.0614 0.11166,-0.10469 0.16801,-0.20482 0.0905,-0.16105 0.0881,-0.18857 -0.0341,-0.44252 -0.0825,-0.17194 -0.0931,-0.18715 -0.11641,-0.16918 -0.0143,0.0108 -0.0934,0.0782 -0.17595,0.14953 -0.16537,0.14288 -0.19632,0.15944 -0.29819,0.15981 -0.0984,2.7e-4 -0.13636,0.0254 -0.18634,0.12308 -0.0364,0.0711 -0.0448,0.10818 -0.05,0.21657 l -0.006,0.13098 -0.11297,0.0806 c -0.26289,0.18799 -0.45813,0.29558 -0.68922,0.37987 -0.0732,0.0267 -0.16965,0.0688 -0.21436,0.0935 -0.10094,0.0557 -0.29015,0.20159 -0.40341,0.31118 -0.047,0.0455 -0.10356,0.0867 -0.12565,0.0915 -0.10475,0.0226 -0.2516,0.0715 -0.33266,0.11076 -0.0492,0.0238 -0.0924,0.0406 -0.0957,0.0373 -0.005,-0.005 0.0614,-0.24175 0.11628,-0.4146 0.008,-0.0241 0.0404,-0.0846 0.0727,-0.13428 0.17153,-0.26329 0.33007,-0.72733 0.50994,-1.49252 0.0838,-0.35659 0.1166,-0.67827 0.077,-0.75462 -0.0125,-0.0241 -0.0798,-0.10151 -0.1497,-0.17231 -0.0699,-0.0708 -0.0879,-0.0931 -0.12713,-0.1352 l -1.6e-4,-1.8e-4 c -0.0407,-0.0318 -0.088,-0.074 -0.11372,-0.0716 z m -0.3279,4.82199 c 0.0269,0.001 0.0641,0.0199 0.151,0.0579 l 0.0713,0.0312 -0.0417,0.0346 c -0.023,0.0189 -0.11848,0.0827 -0.21198,0.1416 -0.0935,0.0589 -0.23977,0.1519 -0.32515,0.20667 -0.0854,0.0548 -0.15737,0.0943 -0.15999,0.088 -0.003,-0.006 0.0189,-0.0565 0.0479,-0.11171 0.0572,-0.10874 0.18153,-0.26207 0.25239,-0.31118 0.0244,-0.0169 0.0815,-0.0571 0.12694,-0.0893 0.0457,-0.0324 0.0624,-0.0488 0.0893,-0.0478 z m -1.6279,0.2342 0.003,0.16018 c 0.004,0.22871 -3.4e-4,0.27607 -0.0285,0.29724 -0.0299,0.0226 -0.0285,0.0225 -0.12509,0.002 -0.12769,-0.0274 -0.22617,-0.1035 -0.27004,-0.20849 -0.0393,-0.094 -0.0325,-0.11168 0.0472,-0.12271 0.12343,-0.0171 0.24469,-0.0527 0.30991,-0.0909 z m 0.14769,0.004 0.0917,0.0433 c 0.085,0.0402 0.15743,0.0601 0.2965,0.0814 0.0449,0.007 0.0555,0.0148 0.0551,0.0411 -9.3e-4,0.094 -0.10925,0.22916 -0.21437,0.26765 -0.0829,0.0303 -0.20828,0.0304 -0.21989,1.9e-4 -0.005,-0.0129 -0.009,-0.1157 -0.009,-0.22852 z m 0.39034,0.51729 v 1.9e-4 c 0.0128,0.013 -0.0348,0.12279 -0.0757,0.1743 -0.0234,0.0295 -0.0784,0.0719 -0.12216,0.0943 -0.0457,0.0234 -0.10345,0.0406 -0.13594,0.0406 h -0.0566 v -0.11625 -0.11647 l 0.12216,-0.006 c 0.0892,-0.005 0.14076,-0.0158 0.19196,-0.0413 0.0385,-0.0192 0.0729,-0.0323 0.0762,-0.0288 z m -0.90633,10e-4 c 0.009,0.001 0.0206,0.007 0.036,0.0171 0.0488,0.0326 0.14605,0.0546 0.24156,0.0546 h 0.0907 v 0.12033 0.12031 l -0.0729,-0.009 c -0.13213,-0.0157 -0.21981,-0.0777 -0.28032,-0.1982 -0.0363,-0.0724 -0.041,-0.10898 -0.0151,-0.10546 z m 0.77116,0.39862 -0.009,0.0674 c -0.0152,0.11102 -0.0793,0.2337 -0.16275,0.31136 l -0.0759,0.0704 -0.004,-0.18404 c -0.002,-0.10121 -7.7e-4,-0.19257 0.003,-0.20318 0.004,-0.0106 0.0297,-0.0193 0.0571,-0.0193 0.0274,0 0.0818,-0.01 0.1207,-0.0213 z m -0.63596,0.001 c 0.007,0.002 0.0155,0.006 0.027,0.0123 0.0157,0.008 0.067,0.0201 0.11372,0.0259 l 0.0849,0.0107 0.004,0.19653 c 0.004,0.18465 0.002,0.19574 -0.0222,0.18224 -0.0945,-0.0516 -0.20214,-0.22825 -0.22042,-0.36171 -0.007,-0.0546 -0.007,-0.0714 0.0129,-0.0659 z"
       fill="#FF7F2A"
       id="path26"
       style="fill:#fafafa;fill-opacity:1;stroke-width:0.264583" />
    <text
       xml:space="preserve"
       style="font-style:italic;font-weight:900;font-size:4.05597px;line-height:1;font-family:Montserrat;-inkscape-font-specification:'Montserrat Heavy Italic';text-align:center;text-anchor:middle;fill:#aeaeae;fill-opacity:1;stroke-width:0.506998"
       x="56.471588"
       y="205.5204"
       id="text26"
       transform="scale(1.8106709,0.55228146)"><tspan
         sodipodi:role="line"
         id="tspan26"
         x="56.471588"
         y="205.5204"
         style="stroke-width:0.506998">GYM</tspan></text>
  </g>
</svg>
